<svg width="56" height="32" viewBox="0 0 56 32" fill="none" xmlns="http://www.w3.org/2000/svg">
<g clip-path="url(#clip0_887_34940)">
<path d="M15.9998 0V32C24.8366 32 32 24.8366 32 16.0002C32 7.16316 24.8366 0 15.9998 0Z" fill="#214391"/>
<path d="M15.9998 0C7.16343 0 0 7.16316 0 16.0002C0 24.8366 7.16343 32 15.9998 32C24.8366 32 24.8366 0 15.9998 0Z" fill="#2B479D"/>
<path d="M15.9726 2.77539L16.3629 3.97641H17.6261L16.6042 4.71866L16.9945 5.91968L15.9726 5.17696L14.9509 5.91968L15.3413 4.71866L14.3191 3.97641H15.5823L15.9726 2.77539Z" fill="#F8D12E"/>
<path d="M15.9726 25.4473L16.3629 26.6488H17.6261L16.6042 27.3911L16.9945 28.592L15.9726 27.8498L14.9509 28.592L15.3413 27.3911L14.3191 26.6488H15.5823L15.9726 25.4473Z" fill="#F8D12E"/>
<path d="M22.1952 4.78516L22.5853 5.98645H23.8485L22.8266 6.72916L23.2169 7.93019L22.1952 7.18747L21.1734 7.93019L21.5637 6.72916L20.542 5.98645H21.8052L22.1952 4.78516Z" fill="#F8D12E"/>
<path d="M26.4406 8.97266L26.8307 10.1737H28.0939L27.0719 10.9162L27.4623 12.1172L26.4406 11.375L25.4187 12.1172L25.809 10.9162L24.7871 10.1737H26.05L26.4406 8.97266Z" fill="#F8D12E"/>
<path d="M26.5417 19.5566L26.9318 20.7581H28.1949L27.173 21.5004L27.5636 22.7011L26.5417 21.9592L25.5198 22.7011L25.9101 21.5004L24.8882 20.7581H26.1514L26.5417 19.5566Z" fill="#F8D12E"/>
<path d="M5.65837 8.97266L6.04844 10.1737H7.31135L6.28969 10.9162L6.67976 12.1172L5.65837 11.375L4.63651 12.1172L5.02678 10.9162L4.00513 10.1737H5.2683L5.65837 8.97266Z" fill="#F8D12E"/>
<path d="M27.4247 14.0215L27.8148 15.2225H29.0779L28.0561 15.9647L28.4463 17.166L27.4247 16.4241L26.4028 17.166L26.7934 15.9647L25.7712 15.2225H27.0341L27.4247 14.0215Z" fill="#F8D12E"/>
<path d="M4.69324 14.0215L5.08331 15.2225H6.34622L5.32436 15.9647L5.7149 17.166L4.69324 16.4241L3.67131 17.166L4.06166 15.9647L3.03979 15.2225H4.3029L4.69324 14.0215Z" fill="#F8D12E"/>
<path d="M5.52137 19.5566L5.91144 20.7581H7.17434L6.15275 21.5004L6.54276 22.7011L5.52137 21.9592L4.49951 22.7011L4.88978 21.5004L3.86792 20.7581H5.13109L5.52137 19.5566Z" fill="#F8D12E"/>
<path d="M22.3783 23.9238L22.7684 25.1249H24.0315L23.0094 25.8676L23.4 27.0686L22.3783 26.3263L21.3562 27.0686L21.7468 25.8676L20.7249 25.1249H21.988L22.3783 23.9238Z" fill="#F8D12E"/>
<path d="M9.95158 4.78516L10.3416 5.98645H11.6048L10.5829 6.72916L10.9734 7.93019L9.95158 7.18747L8.92993 7.93019L9.3202 6.72916L8.29834 5.98645H9.56124L9.95158 4.78516Z" fill="#F8D12E"/>
<path d="M9.49089 23.8477L9.88117 25.0492H11.1443L10.1225 25.7912L10.5128 26.9922L9.49089 26.2504L8.46923 26.9922L8.85951 25.7912L7.83765 25.0492H9.10055L9.49089 23.8477Z" fill="#F8D12E"/>
</g>
<g clip-path="url(#clip1_887_34940)">
<path d="M40.0008 32.0006C48.837 32.0006 56.0001 24.8375 56.0001 16.0013C56.0001 7.1651 48.837 0.00195312 40.0008 0.00195312C31.1646 0.00195312 24.0015 7.1651 24.0015 16.0013C24.0015 24.8375 31.1646 32.0006 40.0008 32.0006Z" fill="white"/>
<path d="M55.0854 10.666H45.2273C45.6555 14.0839 45.658 17.8499 45.2356 21.272H55.1064C55.6827 19.6211 55.9995 17.8481 55.9995 16.0009C55.9997 14.1293 55.6756 12.3347 55.0854 10.666Z" fill="#2B479D"/>
<path d="M45.2273 10.666H55.0852C55.0837 10.661 55.0822 10.6567 55.0802 10.6521C53.0326 4.8783 47.7652 0.630298 41.4365 0.0664062C43.8858 1.40888 44.6013 5.66222 45.2273 10.666Z" fill="#EFECEC"/>
<path d="M41.437 31.9338C47.777 31.3689 53.0517 27.1062 55.0915 21.3169C55.0968 21.3015 55.1013 21.2863 55.1069 21.2715H45.2358C44.6146 26.3024 43.8961 30.5857 41.437 31.9338Z" fill="#E63026"/>
<path d="M24 16.0009C24 17.8484 24.3173 19.6211 24.893 21.272H46.0592C46.4821 17.8496 46.4791 14.0839 46.0514 10.666H24.9143C24.3241 12.3347 24 14.1294 24 16.0009Z" fill="#3757A6"/>
<path d="M24.9194 10.6514C24.9179 10.6559 24.9163 10.6602 24.9143 10.6653H46.0515C45.425 5.66141 43.8859 1.40814 41.4369 0.0656646C40.9632 0.0237122 40.4842 7.69995e-10 39.9997 7.69995e-10C33.0395 -6.75554e-05 27.1206 4.44519 24.9194 10.6514Z" fill="#EFEFEF"/>
<path d="M46.0593 21.2715H24.8931C24.8984 21.2864 24.9034 21.3015 24.9085 21.3169C27.1009 27.539 33.0283 32 39.9997 32C40.4843 32 40.9633 31.9762 41.4369 31.9338C43.8963 30.5858 45.438 26.3025 46.0593 21.2715Z" fill="#E73B36"/>
</g>
<defs>
<clipPath id="clip0_887_34940">
<rect width="32" height="32" fill="white"/>
</clipPath>
<clipPath id="clip1_887_34940">
<rect width="32" height="32" fill="white" transform="translate(24)"/>
</clipPath>
</defs>
</svg>
