<svg width="56" height="32" viewBox="0 0 56 32" fill="none" xmlns="http://www.w3.org/2000/svg">
<g clip-path="url(#clip0_887_34967)">
<path d="M6.87699 29.1416H25.1237L25.1246 29.1406H6.87598L6.87699 29.1416Z" fill="#C42126"/>
<path d="M16 0C15.6857 0 15.3739 0.0113495 15.0645 0.0290493H16.9357C16.626 0.0113495 16.3143 0 16 0Z" fill="#C42126"/>
<path d="M20.729 5.85006H28.3691C27.4617 4.74531 26.407 3.76736 25.2385 2.93945H19.5015C19.9762 3.77466 20.3844 4.76017 20.729 5.85006Z" fill="#E7E7E7"/>
<path d="M19.5015 2.94065H25.2385C22.8668 1.25991 20.0194 0.207376 16.9357 0.0292969H16.4431C17.8945 0.21197 18.5611 1.28612 19.5015 2.94065Z" fill="#DC3027"/>
<path d="M31.4035 11.6743C31.119 10.6597 30.7375 9.68629 30.2687 8.76367H21.479C21.6571 9.69818 21.7976 10.6743 21.9016 11.6743H31.4035Z" fill="#E7E7E7"/>
<path d="M20.9846 8.76264H30.2683C29.7393 7.72207 29.1037 6.74561 28.369 5.85156H20.2593C20.5452 6.75675 20.788 7.73322 20.9846 8.76264Z" fill="#DC3027"/>
<path d="M22.238 17.4967H31.9277C31.9738 17.0044 31.9998 16.5054 31.9998 16.0012C31.9998 15.524 31.9748 15.0528 31.9338 14.5859H22.2403C22.2719 15.554 22.2713 16.5292 22.238 17.4967Z" fill="#E7E7E7"/>
<path d="M31.9342 14.5844C31.8465 13.5847 31.6664 12.6121 31.4034 11.6738H21.4934C21.5929 12.627 21.6587 13.6022 21.6907 14.5844H31.9342Z" fill="#DC3027"/>
<path d="M21.3118 23.3173H30.2267C30.7021 22.3957 31.0896 21.4216 31.3802 20.4062H21.7428C21.6366 21.4077 21.4926 22.3836 21.3118 23.3173Z" fill="#E7E7E7"/>
<path d="M31.3805 20.4067C31.649 19.4687 31.8355 18.4961 31.9281 17.4961H21.9363C21.9021 18.4791 21.8344 19.454 21.7329 20.4067H31.3805Z" fill="#DC3027"/>
<path d="M25.1244 29.1411C26.3097 28.3165 27.3793 27.3375 28.3012 26.2305H20.7943C20.4434 27.3249 20.0268 28.3088 19.5435 29.1411H25.1244Z" fill="#E7E7E7"/>
<path d="M20.5117 26.2294H28.3011C29.0444 25.3364 29.6896 24.3599 30.2264 23.3184H21.2461C21.0468 24.3485 20.8015 25.3255 20.5117 26.2294Z" fill="#DC3027"/>
<path d="M15.42 31.9879C15.3877 31.9869 15.3554 31.9854 15.323 31.9844C15.3554 31.9853 15.3877 31.9869 15.42 31.9879Z" fill="#DC3027"/>
<path d="M15.9998 31.9994C19.3918 31.9994 22.5348 30.9406 25.1233 29.1406H19.3327C18.305 30.9113 17.6269 31.9994 15.9998 31.9994Z" fill="#DC3027"/>
<path d="M15.9999 31.9996C15.8056 31.9996 15.6126 31.9951 15.4202 31.9883C15.6147 31.9948 15.8079 31.9996 15.9999 31.9996Z" fill="#C42126"/>
<path d="M20.031 2.93945H6.76177C5.59311 3.76736 4.53862 4.74524 3.63086 5.85006H21.2583C20.9137 4.76017 20.5058 3.77466 20.031 2.93945Z" fill="#F3F4F5"/>
<path d="M6.76196 2.94065H20.0312C19.0907 1.28612 17.8945 0.21197 16.4431 0.0292969H15.0645C11.9808 0.207376 9.1334 1.25991 6.76196 2.94065Z" fill="#E73625"/>
<path d="M0.596924 11.6743H22.4062C22.3021 10.6741 22.1617 9.69818 21.9836 8.76367H1.73174C1.26283 9.68636 0.881405 10.6597 0.596924 11.6743Z" fill="#F3F4F5"/>
<path d="M3.63095 5.85156C2.89681 6.74561 2.2607 7.722 1.73193 8.76264H21.9835C21.7872 7.73342 21.5445 6.75702 21.2584 5.85156C21.2584 5.85156 3.63095 5.85156 3.63095 5.85156Z" fill="#E73625"/>
<path d="M0.000244141 16.001C0.000244141 16.5052 0.0265237 17.0042 0.0722595 17.4965H22.6018C22.6351 16.5289 22.6356 15.554 22.6041 14.5859H0.0661794C0.0252401 15.0526 0.000244141 15.5238 0.000244141 16.001Z" fill="#F3F4F5"/>
<path d="M0.0661621 14.5844H22.6038C22.5717 13.602 22.5058 12.6271 22.4065 11.6738H0.596684C0.333686 12.6123 0.15358 13.5847 0.0661621 14.5844Z" fill="#E73625"/>
<path d="M22.3984 20.4062H0.619873C0.910434 21.4218 1.29821 22.3957 1.7734 23.3173H21.9673C22.1483 22.3838 22.292 21.4079 22.3984 20.4062Z" fill="#F3F4F5"/>
<path d="M0.619947 20.4067H22.3984C22.4998 19.454 22.5677 18.4788 22.6018 17.4961H0.0722656C0.164953 18.4963 0.35168 19.4687 0.619947 20.4067Z" fill="#E73625"/>
<path d="M6.87582 29.1411H19.9824C20.4657 28.3086 20.8825 27.3249 21.2332 26.2305H3.69897C4.62085 27.3375 5.6902 28.3165 6.87582 29.1411Z" fill="#F3F4F5"/>
<path d="M1.77368 23.3184C2.31055 24.3599 2.95572 25.3364 3.69898 26.2294H21.2332C21.5228 25.3255 21.7681 24.3486 21.9674 23.3184H1.77368Z" fill="#E73625"/>
<path d="M15.3232 31.9846C15.3556 31.9856 15.3879 31.9871 15.4202 31.9881C15.6128 31.9949 15.8058 31.9994 16 31.9994C17.6272 31.9994 18.954 30.9114 19.982 29.1406H6.87695C9.2919 30.8202 12.1906 31.854 15.3232 31.9846Z" fill="#E73625"/>
<path d="M15.6692 0.0078125C7.47002 0.17461 0.787323 6.50527 0.0681152 14.5579H15.6694V0.0078125H15.6692Z" fill="#283991"/>
<path d="M3.20152 9.06641L3.44526 9.81696H4.235L3.59611 10.2811L3.84013 11.0322L3.20152 10.5678L2.56311 11.0322L2.80665 10.2811L2.16797 9.81696H2.95771L3.20152 9.06641Z" fill="#EFEFEF"/>
<path d="M3.20152 11.7168L3.44526 12.4678H4.235L3.59611 12.9319L3.84013 13.683L3.20152 13.2186L2.56311 13.683L2.80665 12.9319L2.16797 12.4678H2.95771L3.20152 11.7168Z" fill="#EFEFEF"/>
<path d="M5.85364 5.08789L6.09745 5.83871H6.88692L6.24824 6.3031L6.49205 7.05365L5.85364 6.58981L5.21496 7.05365L5.45877 6.3031L4.81982 5.83871H5.60956L5.85364 5.08789Z" fill="#EFEFEF"/>
<path d="M5.85364 7.74023L6.09745 8.49106H6.88692L6.24824 8.9549L6.49205 9.706L5.85364 9.24215L5.21496 9.706L5.45877 8.9549L4.81982 8.49106H5.60956L5.85364 7.74023Z" fill="#EFEFEF"/>
<path d="M5.85364 10.3906L6.09745 11.1417H6.88692L6.24824 11.6053L6.49205 12.3564L5.85364 11.8921L5.21496 12.3564L5.45877 11.6053L4.81982 11.1417H5.60956L5.85364 10.3906Z" fill="#EFEFEF"/>
<path d="M1.18806 12.3576L0.944049 11.6065L1.58273 11.1427H0.793465L0.775765 11.0879C0.68909 11.356 0.610792 11.6273 0.538574 11.9016L0.549721 11.8933L1.18806 12.3576Z" fill="#EFEFEF"/>
<path d="M2.5631 8.38003L3.20151 7.91571L3.84019 8.38003L3.59618 7.62893L4.23486 7.16462H3.44512L3.20131 6.41406L2.9575 7.16462H2.66646C2.61242 7.24649 2.56013 7.32885 2.50757 7.41194L2.80671 7.62893L2.5631 8.38003Z" fill="#EFEFEF"/>
<path d="M5.85382 3.93657L6.49223 4.40042L6.24842 3.64986L6.88683 3.18555H6.43082C6.04352 3.47509 5.66986 3.78153 5.31087 4.10486L5.2146 4.40042L5.85382 3.93657Z" fill="#EFEFEF"/>
<path d="M7.86719 3.07577L8.50587 2.61145L9.14428 3.07577L8.90046 2.32467L9.53888 1.86083H8.74941L8.71631 1.75977C8.44878 1.89643 8.18403 2.03864 7.92529 2.18997L8.11073 2.32461L7.86719 3.07577Z" fill="#EFEFEF"/>
<path d="M8.50592 3.76172L8.74973 4.51207H9.5392L8.90052 4.97639L9.14433 5.72748L8.50592 5.2631L7.86724 5.72748L8.11105 4.97639L7.47217 4.51207H8.26184L8.50592 3.76172Z" fill="#EFEFEF"/>
<path d="M8.50592 6.41406L8.74973 7.16441H9.5392L8.90052 7.62873L9.14433 8.37982L8.50592 7.91544L7.86724 8.37982L8.11105 7.62873L7.47217 7.16441H8.26184L8.50592 6.41406Z" fill="#EFEFEF"/>
<path d="M8.50592 9.06641L8.74973 9.81696H9.5392L8.90052 10.2811L9.14433 11.0322L8.50592 10.5678L7.86724 11.0322L8.11105 10.2811L7.47217 9.81696H8.26184L8.50592 9.06641Z" fill="#EFEFEF"/>
<path d="M8.50592 11.7168L8.74973 12.4678H9.5392L8.90052 12.9319L9.14433 13.683L8.50592 13.2186L7.86724 13.683L8.11105 12.9319L7.47217 12.4678H8.26184L8.50592 11.7168Z" fill="#EFEFEF"/>
<path d="M11.158 2.43555L11.4018 3.18637H12.1913L11.5529 3.65075L11.7964 4.40131L11.158 3.93746L10.5191 4.40131L10.7632 3.65075L10.1243 3.18637H10.9139L11.158 2.43555Z" fill="#EFEFEF"/>
<path d="M11.158 5.08789L11.4018 5.83871H12.1913L11.5529 6.3031L11.7964 7.05365L11.158 6.58981L10.5191 7.05365L10.7632 6.3031L10.1243 5.83871H10.9139L11.158 5.08789Z" fill="#EFEFEF"/>
<path d="M11.158 7.74023L11.4018 8.49106H12.1913L11.5529 8.9549L11.7964 9.706L11.158 9.24215L10.5191 9.706L10.7632 8.9549L10.1243 8.49106H10.9139L11.158 7.74023Z" fill="#EFEFEF"/>
<path d="M11.158 10.3906L11.4018 11.1417H12.1913L11.5529 11.6053L11.7964 12.3564L11.158 11.8921L10.5191 12.3564L10.7632 11.6053L10.1243 11.1417H10.9139L11.158 10.3906Z" fill="#EFEFEF"/>
<path d="M13.8101 1.10938L14.0539 1.8602H14.8434L14.2047 2.32404L14.4485 3.07514L13.8101 2.61075L13.1712 3.07514L13.4152 2.32404L12.7764 1.8602H13.5658L13.8101 1.10938Z" fill="#EFEFEF"/>
<path d="M13.8101 3.76172L14.0539 4.51207H14.8434L14.2047 4.97639L14.4485 5.72748L13.8101 5.2631L13.1712 5.72748L13.4152 4.97639L12.7764 4.51207H13.5658L13.8101 3.76172Z" fill="#EFEFEF"/>
<path d="M13.8101 6.41406L14.0539 7.16441H14.8434L14.2047 7.62873L14.4485 8.37982L13.8101 7.91544L13.1712 8.37982L13.4152 7.62873L12.7764 7.16441H13.5658L13.8101 6.41406Z" fill="#EFEFEF"/>
<path d="M13.8101 9.06641L14.0539 9.81696H14.8434L14.2047 10.2811L14.4485 11.0322L13.8101 10.5678L13.1712 11.0322L13.4152 10.2811L12.7764 9.81696H13.5658L13.8101 9.06641Z" fill="#EFEFEF"/>
<path d="M13.8101 11.7168L14.0539 12.4678H14.8434L14.2047 12.9319L14.4485 13.683L13.8101 13.2186L13.1712 13.683L13.4152 12.9319L12.7764 12.4678H13.5658L13.8101 11.7168Z" fill="#EFEFEF"/>
</g>
<g clip-path="url(#clip1_887_34967)">
<path d="M40.0008 32.0006C48.837 32.0006 56.0001 24.8375 56.0001 16.0013C56.0001 7.1651 48.837 0.00195312 40.0008 0.00195312C31.1646 0.00195312 24.0015 7.1651 24.0015 16.0013C24.0015 24.8375 31.1646 32.0006 40.0008 32.0006Z" fill="white"/>
<path d="M55.0854 10.666H45.2273C45.6555 14.0839 45.658 17.8499 45.2356 21.272H55.1064C55.6827 19.6211 55.9995 17.8481 55.9995 16.0009C55.9997 14.1293 55.6756 12.3347 55.0854 10.666Z" fill="#2B479D"/>
<path d="M45.2273 10.666H55.0852C55.0837 10.661 55.0822 10.6567 55.0802 10.6521C53.0326 4.8783 47.7652 0.630298 41.4365 0.0664062C43.8858 1.40888 44.6013 5.66222 45.2273 10.666Z" fill="#EFECEC"/>
<path d="M41.437 31.9338C47.777 31.3689 53.0517 27.1062 55.0915 21.3169C55.0968 21.3015 55.1013 21.2863 55.1069 21.2715H45.2358C44.6146 26.3024 43.8961 30.5857 41.437 31.9338Z" fill="#E63026"/>
<path d="M24 16.0009C24 17.8484 24.3173 19.6211 24.893 21.272H46.0592C46.4821 17.8496 46.4791 14.0839 46.0514 10.666H24.9143C24.3241 12.3347 24 14.1294 24 16.0009Z" fill="#3757A6"/>
<path d="M24.9194 10.6514C24.9179 10.6559 24.9163 10.6602 24.9143 10.6653H46.0515C45.425 5.66141 43.8859 1.40814 41.4369 0.0656646C40.9632 0.0237122 40.4842 7.69995e-10 39.9997 7.69995e-10C33.0395 -6.75554e-05 27.1206 4.44519 24.9194 10.6514Z" fill="#EFEFEF"/>
<path d="M46.0593 21.2715H24.8931C24.8984 21.2864 24.9034 21.3015 24.9085 21.3169C27.1009 27.539 33.0283 32 39.9997 32C40.4843 32 40.9633 31.9762 41.4369 31.9338C43.8963 30.5858 45.438 26.3025 46.0593 21.2715Z" fill="#E73B36"/>
</g>
<defs>
<clipPath id="clip0_887_34967">
<rect width="32" height="32" fill="white"/>
</clipPath>
<clipPath id="clip1_887_34967">
<rect width="32" height="32" fill="white" transform="translate(24)"/>
</clipPath>
</defs>
</svg>
