<svg width="56" height="32" viewBox="0 0 56 32" fill="none" xmlns="http://www.w3.org/2000/svg">
<g clip-path="url(#clip0_102_6)">
<path d="M15.9998 0V32C24.8366 32 32 24.8366 32 16.0002C32 7.16316 24.8366 0 15.9998 0Z" fill="#214391"/>
<path d="M15.9998 0C7.16343 0 0 7.16316 0 16.0002C0 24.8366 7.16343 32 15.9998 32C24.8366 32 24.8366 0 15.9998 0Z" fill="#2B479D"/>
<path d="M15.9726 2.77539L16.3628 3.97641H17.626L16.6041 4.71866L16.9944 5.91968L15.9726 5.17696L14.9509 5.91968L15.3412 4.71866L14.319 3.97641H15.5822L15.9726 2.77539Z" fill="#F8D12E"/>
<path d="M15.9726 25.4473L16.3629 26.6488H17.6261L16.6042 27.3911L16.9945 28.592L15.9726 27.8498L14.9509 28.592L15.3413 27.3911L14.3191 26.6488H15.5823L15.9726 25.4473Z" fill="#F8D12E"/>
<path d="M22.1952 4.78516L22.5853 5.98645H23.8485L22.8266 6.72916L23.2169 7.93019L22.1952 7.18747L21.1734 7.93019L21.5636 6.72916L20.542 5.98645H21.8052L22.1952 4.78516Z" fill="#F8D12E"/>
<path d="M26.4406 8.97266L26.8307 10.1737H28.0939L27.0719 10.9162L27.4623 12.1172L26.4406 11.375L25.4187 12.1172L25.809 10.9162L24.7871 10.1737H26.05L26.4406 8.97266Z" fill="#F8D12E"/>
<path d="M26.5417 19.5566L26.9318 20.7581H28.1949L27.173 21.5004L27.5636 22.7011L26.5417 21.9592L25.5198 22.7011L25.9101 21.5004L24.8882 20.7581H26.1514L26.5417 19.5566Z" fill="#F8D12E"/>
<path d="M5.65837 8.97266L6.04844 10.1737H7.31135L6.28969 10.9162L6.67976 12.1172L5.65837 11.375L4.63651 12.1172L5.02678 10.9162L4.00513 10.1737H5.2683L5.65837 8.97266Z" fill="#F8D12E"/>
<path d="M27.4247 14.0215L27.8148 15.2225H29.0779L28.0561 15.9647L28.4463 17.166L27.4247 16.4241L26.4028 17.166L26.7934 15.9647L25.7712 15.2225H27.0341L27.4247 14.0215Z" fill="#F8D12E"/>
<path d="M4.69324 14.0215L5.08331 15.2225H6.34622L5.32436 15.9647L5.7149 17.166L4.69324 16.4241L3.67131 17.166L4.06166 15.9647L3.03979 15.2225H4.3029L4.69324 14.0215Z" fill="#F8D12E"/>
<path d="M5.52137 19.5566L5.91144 20.7581H7.17434L6.15275 21.5004L6.54276 22.7011L5.52137 21.9592L4.49951 22.7011L4.88978 21.5004L3.86792 20.7581H5.13109L5.52137 19.5566Z" fill="#F8D12E"/>
<path d="M22.3783 23.9238L22.7684 25.1249H24.0315L23.0094 25.8676L23.4 27.0686L22.3783 26.3263L21.3562 27.0686L21.7468 25.8676L20.7249 25.1249H21.988L22.3783 23.9238Z" fill="#F8D12E"/>
<path d="M9.95158 4.78516L10.3416 5.98645H11.6048L10.5829 6.72916L10.9734 7.93019L9.95158 7.18747L8.92993 7.93019L9.3202 6.72916L8.29834 5.98645H9.56124L9.95158 4.78516Z" fill="#F8D12E"/>
<path d="M9.49089 23.8477L9.88117 25.0492H11.1443L10.1225 25.7912L10.5128 26.9922L9.49089 26.2504L8.46923 26.9922L8.85951 25.7912L7.83765 25.0492H9.10055L9.49089 23.8477Z" fill="#F8D12E"/>
</g>
<g clip-path="url(#clip1_102_6)">
<path d="M31.9292 17.4961H0.0721741V17.4966H31.9292V17.4961Z" fill="#C42126"/>
<path d="M30.2686 8.76172H1.73135V8.76219H30.2686V8.76172Z" fill="#C42126"/>
<path d="M31.4024 11.6738H0.596588V11.6743H31.4024V11.6738Z" fill="#C42126"/>
<path d="M6.8769 29.1416H25.1236L25.1245 29.1406H6.87589L6.8769 29.1416Z" fill="#C42126"/>
<path d="M15.9999 0C15.6856 0 15.3739 0.0113495 15.0644 0.0290493H16.9356C16.6259 0.0113495 16.3142 0 15.9999 0Z" fill="#C42126"/>
<path d="M31.9332 14.584H0.0660706V14.5845H31.9332V14.584Z" fill="#C42126"/>
<path d="M20.729 5.85006H28.3691C27.4617 4.74531 26.407 3.76736 25.2385 2.93945H19.5015C19.9762 3.77466 20.3844 4.76017 20.729 5.85006Z" fill="#E7E7E7"/>
<path d="M19.5015 2.94065H25.2385C22.8668 1.25991 20.0194 0.207376 16.9357 0.0292969H16.4431C17.8945 0.21197 18.5611 1.28612 19.5015 2.94065Z" fill="#DC3027"/>
<path d="M31.4035 11.6743C31.119 10.6597 30.7375 9.68629 30.2687 8.76367H21.479C21.6571 9.69818 21.7976 10.6743 21.9016 11.6743H31.4035Z" fill="#E7E7E7"/>
<path d="M20.9846 8.76264H30.2683C29.7393 7.72207 29.1037 6.74561 28.369 5.85156H20.2593C20.5452 6.75675 20.788 7.73322 20.9846 8.76264Z" fill="#DC3027"/>
<path d="M22.238 17.4967H31.9277C31.9738 17.0044 31.9998 16.5054 31.9998 16.0012C31.9998 15.524 31.9748 15.0528 31.9338 14.5859H22.2403C22.2719 15.554 22.2713 16.5292 22.238 17.4967Z" fill="#E7E7E7"/>
<path d="M31.9342 14.5845C31.8465 13.5848 31.6664 12.6122 31.4034 11.6739H21.4934C21.5929 12.6271 21.6586 13.6022 21.6907 14.5845H31.9342Z" fill="#DC3027"/>
<path d="M21.3118 23.3173H30.2267C30.7021 22.3957 31.0896 21.4216 31.3802 20.4062H21.7428C21.6366 21.4077 21.4926 22.3836 21.3118 23.3173Z" fill="#E7E7E7"/>
<path d="M31.3805 20.4067C31.649 19.4687 31.8355 18.4961 31.9281 17.4961H21.9363C21.9021 18.4791 21.8344 19.454 21.7329 20.4067H31.3805Z" fill="#DC3027"/>
<path d="M25.1244 29.1411C26.3097 28.3165 27.3793 27.3375 28.3012 26.2305H20.7943C20.4434 27.3249 20.0268 28.3088 19.5435 29.1411H25.1244Z" fill="#E7E7E7"/>
<path d="M20.5119 26.2294H28.3013C29.0445 25.3364 29.6898 24.3599 30.2266 23.3183H21.2463C21.047 24.3485 20.8017 25.3254 20.5119 26.2294Z" fill="#DC3027"/>
<path d="M15.4201 31.9878C15.3877 31.9868 15.3554 31.9853 15.323 31.9843C15.3554 31.9853 15.3878 31.9868 15.4201 31.9878Z" fill="#DC3027"/>
<path d="M15.9998 31.9994C19.3919 31.9994 22.5349 30.9405 25.1234 29.1406H19.3328C18.305 30.9112 17.627 31.9994 15.9998 31.9994Z" fill="#DC3027"/>
<path d="M15.9999 31.9996C15.8056 31.9996 15.6126 31.9951 15.4202 31.9883C15.6147 31.9948 15.8079 31.9996 15.9999 31.9996Z" fill="#C42126"/>
<path d="M20.031 2.93945H6.76177C5.59311 3.76736 4.53862 4.74524 3.63086 5.85006H21.2583C20.9137 4.76017 20.5058 3.77466 20.031 2.93945Z" fill="#F3F4F5"/>
<path d="M6.76196 2.94065H20.0312C19.0907 1.28612 17.8945 0.21197 16.4431 0.0292969H15.0645C11.9808 0.207376 9.1334 1.25991 6.76196 2.94065Z" fill="#E73625"/>
<path d="M0.596924 11.6743H22.4062C22.3021 10.6741 22.1617 9.69818 21.9836 8.76367H1.73174C1.26283 9.68636 0.881405 10.6597 0.596924 11.6743Z" fill="#F3F4F5"/>
<path d="M3.63095 5.85156C2.89681 6.74561 2.2607 7.722 1.73193 8.76264H21.9835C21.7872 7.73342 21.5445 6.75702 21.2584 5.85156C21.2584 5.85156 3.63095 5.85156 3.63095 5.85156Z" fill="#E73625"/>
<path d="M0.000244141 16.001C0.000244141 16.5052 0.0265237 17.0042 0.0722595 17.4965H22.6018C22.6351 16.5289 22.6356 15.554 22.6041 14.5859H0.0661794C0.0252401 15.0526 0.000244141 15.5238 0.000244141 16.001Z" fill="#F3F4F5"/>
<path d="M0.0660706 14.5845H22.6037C22.5716 13.602 22.5057 12.6271 22.4064 11.6739H0.596592C0.333595 12.6124 0.153489 13.5848 0.0660706 14.5845Z" fill="#E73625"/>
<path d="M22.3984 20.4062H0.619873C0.910434 21.4218 1.29821 22.3957 1.7734 23.3173H21.9673C22.1483 22.3838 22.292 21.4079 22.3984 20.4062Z" fill="#F3F4F5"/>
<path d="M0.619947 20.4067H22.3984C22.4998 19.454 22.5677 18.4788 22.6018 17.4961H0.0722656C0.164953 18.4963 0.35168 19.4687 0.619947 20.4067Z" fill="#E73625"/>
<path d="M6.87582 29.1411H19.9824C20.4657 28.3086 20.8825 27.3249 21.2332 26.2305H3.69897C4.62085 27.3375 5.69021 28.3165 6.87582 29.1411Z" fill="#F3F4F5"/>
<path d="M1.77363 23.3182C2.3105 24.3598 2.95567 25.3363 3.69893 26.2293H21.2332C21.5227 25.3254 21.768 24.3485 21.9673 23.3182H1.77363Z" fill="#E73625"/>
<path d="M15.3232 31.9844C15.3555 31.9854 15.3878 31.9869 15.4202 31.9879C15.6127 31.9948 15.8057 31.9993 15.9999 31.9993C17.6272 31.9993 18.954 30.9112 19.9819 29.1405H6.8769C9.29185 30.8201 12.1906 31.8538 15.3232 31.9844Z" fill="#E73625"/>
<path d="M15.6692 0.0078125C7.47002 0.17461 0.787323 6.50527 0.0681152 14.5579H15.6694V0.0078125H15.6692Z" fill="#283991"/>
<path d="M3.20152 9.06641L3.44526 9.81696H4.235L3.59611 10.2811L3.84013 11.0322L3.20152 10.5678L2.56311 11.0322L2.80665 10.2811L2.16797 9.81696H2.95771L3.20152 9.06641Z" fill="#EFEFEF"/>
<path d="M3.20152 11.7168L3.44526 12.4678H4.235L3.59611 12.9319L3.84013 13.683L3.20152 13.2186L2.56311 13.683L2.80665 12.9319L2.16797 12.4678H2.95771L3.20152 11.7168Z" fill="#EFEFEF"/>
<path d="M5.85364 5.08789L6.09745 5.83871H6.88692L6.24824 6.3031L6.49205 7.05365L5.85364 6.58981L5.21496 7.05365L5.45877 6.3031L4.81982 5.83871H5.60956L5.85364 5.08789Z" fill="#EFEFEF"/>
<path d="M5.85364 7.74023L6.09745 8.49106H6.88692L6.24824 8.9549L6.49205 9.706L5.85364 9.24215L5.21496 9.706L5.45877 8.9549L4.81982 8.49106H5.60956L5.85364 7.74023Z" fill="#EFEFEF"/>
<path d="M5.85364 10.3906L6.09745 11.1417H6.88692L6.24824 11.6053L6.49205 12.3564L5.85364 11.8921L5.21496 12.3564L5.45877 11.6053L4.81982 11.1417H5.60956L5.85364 10.3906Z" fill="#EFEFEF"/>
<path d="M1.18806 12.3576L0.944049 11.6065L1.58273 11.1427H0.793465L0.775765 11.0879C0.68909 11.356 0.610792 11.6273 0.538574 11.9016L0.549721 11.8933L1.18806 12.3576Z" fill="#EFEFEF"/>
<path d="M2.5631 8.38003L3.20151 7.91571L3.84019 8.38003L3.59618 7.62893L4.23486 7.16462H3.44512L3.20131 6.41406L2.9575 7.16462H2.66646C2.61242 7.24649 2.56013 7.32885 2.50757 7.41194L2.80671 7.62893L2.5631 8.38003Z" fill="#EFEFEF"/>
<path d="M5.85382 3.93657L6.49223 4.40042L6.24842 3.64986L6.88683 3.18555H6.43082C6.04352 3.47509 5.66986 3.78153 5.31087 4.10486L5.2146 4.40042L5.85382 3.93657Z" fill="#EFEFEF"/>
<path d="M7.86719 3.07577L8.50587 2.61145L9.14428 3.07577L8.90046 2.32467L9.53888 1.86083H8.74941L8.71631 1.75977C8.44878 1.89643 8.18403 2.03864 7.92529 2.18997L8.11073 2.32461L7.86719 3.07577Z" fill="#EFEFEF"/>
<path d="M8.50586 3.76151L8.74967 4.51186H9.53914L8.90046 4.97618L9.14427 5.72727L8.50586 5.26289L7.86718 5.72727L8.11099 4.97618L7.47211 4.51186H8.26178L8.50586 3.76151Z" fill="#EFEFEF"/>
<path d="M8.50592 6.41406L8.74973 7.16441H9.5392L8.90052 7.62873L9.14433 8.37982L8.50592 7.91544L7.86724 8.37982L8.11105 7.62873L7.47217 7.16441H8.26184L8.50592 6.41406Z" fill="#EFEFEF"/>
<path d="M8.50592 9.06641L8.74973 9.81696H9.5392L8.90052 10.2811L9.14433 11.0322L8.50592 10.5678L7.86724 11.0322L8.11105 10.2811L7.47217 9.81696H8.26184L8.50592 9.06641Z" fill="#EFEFEF"/>
<path d="M8.50592 11.7168L8.74973 12.4678H9.5392L8.90052 12.9319L9.14433 13.683L8.50592 13.2186L7.86724 13.683L8.11105 12.9319L7.47217 12.4678H8.26184L8.50592 11.7168Z" fill="#EFEFEF"/>
<path d="M11.158 2.43555L11.4018 3.18637H12.1913L11.5529 3.65075L11.7964 4.40131L11.158 3.93746L10.5191 4.40131L10.7632 3.65075L10.1243 3.18637H10.9139L11.158 2.43555Z" fill="#EFEFEF"/>
<path d="M11.158 5.08789L11.4018 5.83871H12.1913L11.5529 6.3031L11.7964 7.05365L11.158 6.58981L10.5191 7.05365L10.7632 6.3031L10.1243 5.83871H10.9139L11.158 5.08789Z" fill="#EFEFEF"/>
<path d="M11.158 7.74023L11.4018 8.49106H12.1913L11.5529 8.9549L11.7964 9.706L11.158 9.24215L10.5191 9.706L10.7632 8.9549L10.1243 8.49106H10.9139L11.158 7.74023Z" fill="#EFEFEF"/>
<path d="M11.158 10.3906L11.4018 11.1417H12.1913L11.5529 11.6053L11.7964 12.3564L11.158 11.8921L10.5191 12.3564L10.7632 11.6053L10.1243 11.1417H10.9139L11.158 10.3906Z" fill="#EFEFEF"/>
<path d="M13.8101 1.10938L14.0539 1.8602H14.8434L14.2047 2.32404L14.4485 3.07514L13.8101 2.61075L13.1712 3.07514L13.4153 2.32404L12.7764 1.8602H13.5658L13.8101 1.10938Z" fill="#EFEFEF"/>
<path d="M13.8101 3.76151L14.0539 4.51186H14.8434L14.2047 4.97618L14.4485 5.72727L13.8101 5.26289L13.1712 5.72727L13.4153 4.97618L12.7764 4.51186H13.5658L13.8101 3.76151Z" fill="#EFEFEF"/>
<path d="M13.8101 6.41406L14.0539 7.16441H14.8434L14.2047 7.62873L14.4485 8.37982L13.8101 7.91544L13.1712 8.37982L13.4152 7.62873L12.7764 7.16441H13.5658L13.8101 6.41406Z" fill="#EFEFEF"/>
<path d="M13.8101 9.06641L14.0539 9.81696H14.8434L14.2047 10.2811L14.4485 11.0322L13.8101 10.5678L13.1712 11.0322L13.4152 10.2811L12.7764 9.81696H13.5658L13.8101 9.06641Z" fill="#EFEFEF"/>
<path d="M13.8101 11.7168L14.0539 12.4678H14.8434L14.2047 12.9319L14.4485 13.683L13.8101 13.2186L13.1712 13.683L13.4152 12.9319L12.7764 12.4678H13.5658L13.8101 11.7168Z" fill="#EFEFEF"/>
</g>
<g clip-path="url(#clip2_102_6)">
<path d="M45.9394 16.0002H56C56 7.16316 48.8366 0 39.9998 0C44.418 0 45.9397 8.00039 45.9394 16.0002Z" fill="#3DAAE0"/>
<path d="M24 16.0002H46.6271C46.6273 8.00039 44.418 0 39.9998 0C31.1634 0 24 7.16316 24 16.0002Z" fill="#44C1EF"/>
<path d="M45.6026 16.0002C45.6026 24.0001 44.4183 32 39.9998 32C48.8366 32 56 24.8366 56 16.0002H45.6026Z" fill="#E8BD1F"/>
<path d="M46.6271 16.0002H24C24 24.8366 31.1634 32 39.9998 32C44.418 32 46.6271 24.0002 46.6271 16.0002Z" fill="#FDCE0C"/>
</g>
<defs>
<clipPath id="clip0_102_6">
<rect width="32" height="32" fill="white"/>
</clipPath>
<clipPath id="clip1_102_6">
<rect width="32" height="32" fill="white"/>
</clipPath>
<clipPath id="clip2_102_6">
<rect width="32" height="32" fill="white" transform="translate(24)"/>
</clipPath>
</defs>
</svg>
