<svg width="56" height="32" viewBox="0 0 56 32" fill="none" xmlns="http://www.w3.org/2000/svg">
<g clip-path="url(#clip0_102_5)">
<g clip-path="url(#clip1_102_5)">
<path d="M15.9998 0V32C24.8366 32 32 24.8366 32 16.0002C32 7.16316 24.8366 0 15.9998 0Z" fill="#214391"/>
<path d="M15.9998 0C7.16343 0 0 7.16316 0 16.0002C0 24.8366 7.16343 32 15.9998 32C24.8366 32 24.8366 0 15.9998 0Z" fill="#2B479D"/>
<path d="M15.9726 2.77539L16.3628 3.97641H17.626L16.6041 4.71866L16.9944 5.91968L15.9726 5.17696L14.9509 5.91968L15.3412 4.71866L14.319 3.97641H15.5822L15.9726 2.77539Z" fill="#F8D12E"/>
<path d="M15.9726 25.4473L16.3629 26.6488H17.6261L16.6042 27.3911L16.9945 28.592L15.9726 27.8498L14.9509 28.592L15.3413 27.3911L14.3191 26.6488H15.5823L15.9726 25.4473Z" fill="#F8D12E"/>
<path d="M22.1952 4.78516L22.5853 5.98645H23.8485L22.8266 6.72916L23.2169 7.93019L22.1952 7.18747L21.1734 7.93019L21.5636 6.72916L20.542 5.98645H21.8052L22.1952 4.78516Z" fill="#F8D12E"/>
<path d="M26.4406 8.97266L26.8307 10.1737H28.0939L27.0719 10.9162L27.4623 12.1172L26.4406 11.375L25.4187 12.1172L25.809 10.9162L24.7871 10.1737H26.05L26.4406 8.97266Z" fill="#F8D12E"/>
<path d="M26.5417 19.5566L26.9318 20.7581H28.1949L27.173 21.5004L27.5636 22.7011L26.5417 21.9592L25.5198 22.7011L25.9101 21.5004L24.8882 20.7581H26.1514L26.5417 19.5566Z" fill="#F8D12E"/>
<path d="M5.65837 8.97266L6.04844 10.1737H7.31135L6.28969 10.9162L6.67976 12.1172L5.65837 11.375L4.63651 12.1172L5.02678 10.9162L4.00513 10.1737H5.2683L5.65837 8.97266Z" fill="#F8D12E"/>
<path d="M27.4247 14.0215L27.8148 15.2225H29.0779L28.0561 15.9647L28.4463 17.166L27.4247 16.4241L26.4028 17.166L26.7934 15.9647L25.7712 15.2225H27.0341L27.4247 14.0215Z" fill="#F8D12E"/>
<path d="M4.69324 14.0215L5.08331 15.2225H6.34622L5.32436 15.9647L5.7149 17.166L4.69324 16.4241L3.67131 17.166L4.06166 15.9647L3.03979 15.2225H4.3029L4.69324 14.0215Z" fill="#F8D12E"/>
<path d="M5.52137 19.5566L5.91144 20.7581H7.17434L6.15275 21.5004L6.54276 22.7011L5.52137 21.9592L4.49951 22.7011L4.88978 21.5004L3.86792 20.7581H5.13109L5.52137 19.5566Z" fill="#F8D12E"/>
<path d="M22.3783 23.9238L22.7684 25.1249H24.0315L23.0094 25.8676L23.4 27.0686L22.3783 26.3263L21.3562 27.0686L21.7468 25.8676L20.7249 25.1249H21.988L22.3783 23.9238Z" fill="#F8D12E"/>
<path d="M9.95158 4.78516L10.3416 5.98645H11.6048L10.5829 6.72916L10.9734 7.93019L9.95158 7.18747L8.92993 7.93019L9.3202 6.72916L8.29834 5.98645H9.56124L9.95158 4.78516Z" fill="#F8D12E"/>
<path d="M9.49089 23.8477L9.88117 25.0492H11.1443L10.1225 25.7912L10.5128 26.9922L9.49089 26.2504L8.46923 26.9922L8.85951 25.7912L7.83765 25.0492H9.10055L9.49089 23.8477Z" fill="#F8D12E"/>
</g>
<g clip-path="url(#clip2_102_5)">
<path d="M45.9394 16.0002H56C56 7.16316 48.8366 0 39.9998 0C44.418 0 45.9397 8.00039 45.9394 16.0002Z" fill="#3DAAE0"/>
<path d="M24 16.0002H46.6271C46.6273 8.00039 44.418 0 39.9998 0C31.1634 0 24 7.16316 24 16.0002Z" fill="#44C1EF"/>
<path d="M45.6026 16.0002C45.6026 24.0001 44.4183 32 39.9998 32C48.8366 32 56 24.8366 56 16.0002H45.6026Z" fill="#E8BD1F"/>
<path d="M46.6271 16.0002H24C24 24.8366 31.1634 32 39.9998 32C44.418 32 46.6271 24.0002 46.6271 16.0002Z" fill="#FDCE0C"/>
</g>
</g>
<defs>
<clipPath id="clip0_102_5">
<rect width="56" height="32" fill="white"/>
</clipPath>
<clipPath id="clip1_102_5">
<rect width="32" height="32" fill="white"/>
</clipPath>
<clipPath id="clip2_102_5">
<rect width="32" height="32" fill="white" transform="translate(24)"/>
</clipPath>
</defs>
</svg>
