<?xml version="1.0"?><svg viewBox="0 0 1024 1024" xmlns="http://www.w3.org/2000/svg"><path d="M95.106 512.974c0-230.527 187.552-418.077 418.077-418.077s418.075 187.55 418.075 418.077c0 230.525-187.552 418.077-418.075 418.077s-418.077-187.552-418.077-418.077zM173.495 512.974c0 187.298 152.376 339.684 339.687 339.684s339.686-152.386 339.686-339.684c0-187.3-152.376-339.688-339.687-339.688s-339.686 152.389-339.686 339.689zM460.921 669.75l0-156.775c0-28.86 23.399-52.26 52.26-52.26 28.86 0 52.26 23.399 52.26 52.26l0 156.775c0 28.86-23.399 52.26-52.26 52.26-28.86 0-52.26-23.399-52.26-52.26zM460.921 356.196c0-28.863 23.399-52.263 52.26-52.263 28.86 0 52.26 23.399 52.26 52.263 0 28.858-23.399 52.257-52.26 52.257-28.86 0-52.26-23.399-52.26-52.257z" /></svg>