<svg width="48" height="48" viewBox="0 0 48 48" fill="none" xmlns="http://www.w3.org/2000/svg">
<circle cx="24" cy="24" r="24" fill="#325CF0"/>
<g clip-path="url(#clip0_8_35)">
<path d="M21.1914 26.2852C20.7707 26.2852 20.4297 26.6262 20.4297 27.0469V28.5703C20.4297 28.991 20.7707 29.332 21.1914 29.332C21.6121 29.332 21.9531 28.991 21.9531 28.5703V27.0469C21.9531 26.6262 21.6121 26.2852 21.1914 26.2852Z" fill="white"/>
<path d="M28.8086 29.332C29.2293 29.332 29.5703 28.991 29.5703 28.5703V27.0469C29.5703 26.6262 29.2293 26.2852 28.8086 26.2852C28.3879 26.2852 28.0469 26.6262 28.0469 27.0469V28.5703C28.0469 28.991 28.3879 29.332 28.8086 29.332Z" fill="white"/>
<path d="M25.8125 16.3828H34.1406C34.5613 16.3828 34.9023 16.0418 34.9023 15.6211C34.9023 15.2004 34.5613 14.8594 34.1406 14.8594H25.8125C25.3918 14.8594 25.0508 15.2004 25.0508 15.6211C25.0508 16.0418 25.3918 16.3828 25.8125 16.3828Z" fill="white"/>
<path d="M37 18.9375V13.3008C37 11.4807 35.5193 10 33.6992 10H24.2539C22.4339 10 20.9531 11.4807 20.9531 13.3008V19.1914H19.9375C17.1533 19.1914 14.8183 21.15 14.2371 23.7617H14.0977V19.0604C14.9842 18.746 15.6211 17.8993 15.6211 16.9062C15.6211 15.6462 14.596 14.6211 13.3359 14.6211C12.0759 14.6211 11.0508 15.6462 11.0508 16.9062C11.0508 17.8993 11.6876 18.746 12.5742 19.0604V23.8755C11.6613 24.1752 11 25.035 11 26.0469V29.0938C11 30.3538 12.0251 31.3789 13.2852 31.3789H14.226C14.7881 34.0159 17.1353 36 19.9375 36H28.0625C30.8647 36 33.2119 34.0159 33.774 31.3789H34.7148C35.9749 31.3789 37 30.3538 37 29.0938V26.0469C37 24.7868 35.9749 23.7617 34.7148 23.7617H33.7626C33.6443 23.2295 33.4521 22.7168 33.1915 22.2383H33.6992C35.5193 22.2383 37 20.7576 37 18.9375ZM22.4766 13.3008C22.4766 12.3208 23.2739 11.5234 24.2539 11.5234H33.6992C34.6792 11.5234 35.4766 12.3208 35.4766 13.3008V18.9375C35.4766 19.9175 34.6792 20.7148 33.6992 20.7148H24.7617C24.6434 20.7148 24.5269 20.7424 24.4211 20.7952L22.4766 21.7675V13.3008ZM13.3359 16.1445C13.7559 16.1445 14.0977 16.4862 14.0977 16.9062C14.0977 17.3263 13.7559 17.668 13.3359 17.668C12.9159 17.668 12.5742 17.3263 12.5742 16.9062C12.5742 16.4862 12.9159 16.1445 13.3359 16.1445ZM12.5234 29.0938V26.0469C12.5234 25.6269 12.8651 25.2852 13.2852 25.2852H14.0977V29.8555H13.2852C12.8651 29.8555 12.5234 29.5138 12.5234 29.0938ZM35.4766 26.0469V29.0938C35.4766 29.5138 35.1349 29.8555 34.7148 29.8555H33.9023V25.2852H34.7148C35.1349 25.2852 35.4766 25.6269 35.4766 26.0469ZM32.3789 25.0312V30.1602C32.3789 32.5402 30.4426 34.4766 28.0625 34.4766H19.9375C17.5574 34.4766 15.6211 32.5402 15.6211 30.1602V25.0312C15.6211 22.6512 17.5574 20.7148 19.9375 20.7148H20.9531V23C20.9531 23.5653 21.5494 23.9344 22.0555 23.6813L24.9415 22.2383H31.3522C32.0143 23.0175 32.3789 24.0057 32.3789 25.0312Z" fill="white"/>
<path d="M25.8125 19.4297H34.1406C34.5613 19.4297 34.9023 19.0886 34.9023 18.668C34.9023 18.2473 34.5613 17.9062 34.1406 17.9062H25.8125C25.3918 17.9062 25.0508 18.2473 25.0508 18.668C25.0508 19.0886 25.3918 19.4297 25.8125 19.4297Z" fill="white"/>
<path d="M22.7148 31.6172C22.7148 32.0379 23.0559 32.3789 23.4766 32.3789H26.5234C26.9441 32.3789 27.2852 32.0379 27.2852 31.6172C27.2852 31.1965 26.9441 30.8555 26.5234 30.8555H23.4766C23.0559 30.8555 22.7148 31.1965 22.7148 31.6172Z" fill="white"/>
</g>
<defs>
<clipPath id="clip0_8_35">
<rect width="28" height="28" fill="white" transform="translate(11 10)"/>
</clipPath>
</defs>
</svg>
