<?xml version="1.0"?><svg xmlns="http://www.w3.org/2000/svg" viewBox="0 0 20 20" ><path d="M19.26,10.29a9.49,9.49,0,0,0-17.71-3" style="fill:none;stroke:#42b72a;stroke-linecap:round;stroke-linejoin:round;stroke-width:1.2px" /><polyline points="0.79 3.94 1.31 7.67 4.97 6.77" style="fill:none;stroke:#42b72a;stroke-linecap:round;stroke-linejoin:round;stroke-width:1.2px" /><path d="M7.44,10.32c0-.92,1.81-1.67,4-1.67s4,.75,4,1.67S13.71,12,11.48,12A9.23,9.23,0,0,1,10,11.86" style="fill:none;stroke:#fda800;stroke-linecap:round;stroke-linejoin:round;stroke-width:1.2px" /><path d="M15.51,13.25c0,.92-1.81,1.67-4,1.67-.29,0-.58,0-.85,0" style="fill:none;stroke:#fda800;stroke-linecap:round;stroke-linejoin:round;stroke-width:1.2px" /><path d="M8.72,17.61a7.88,7.88,0,0,0,2.76.45c2.23,0,4-.75,4-1.67V10.48" style="fill:none;stroke:#fda800;stroke-linecap:round;stroke-linejoin:round;stroke-width:1.2px" /><circle cx="6.75" cy="14.19" r="3.87" style="fill:none;stroke:#fda800;stroke-linecap:round;stroke-linejoin:round;stroke-width:1.2px" /></svg>