<svg width="19" height="20" viewBox="0 0 19 20" fill="none" xmlns="http://www.w3.org/2000/svg">
<path d="M9.40234 4.25781C11.366 4.25781 13.1422 5.23065 14.1602 6.57114L16.5729 4.22491C15.1299 2.41318 12.3525 0.976562 9.40234 0.976562C4.23676 0.976562 0 5.01254 0 10C0 14.9875 4.23676 19.0234 9.40234 19.0234C13.6845 19.0234 17.2867 16.2508 18.3912 12.4609C18.629 11.6733 18.748 10.853 18.748 10V9.17969H10.252V12.4603H14.7549C13.8203 14.3964 11.7642 15.7422 9.40234 15.7422C6.12294 15.7422 3.39844 13.1663 3.39844 10C3.39844 6.83368 6.12294 4.25781 9.40234 4.25781Z" fill="white"/>
</svg>
