<svg width="36" height="36" viewBox="0 0 36 36" fill="none" xmlns="http://www.w3.org/2000/svg">
<g clip-path="url(#clip0)">
<path d="M18 6.89322C19.8075 6.89322 21.2728 5.42794 21.2728 3.62048C21.2728 1.81302 19.8075 0.347748 18 0.347748C16.1926 0.347748 14.7273 1.81302 14.7273 3.62048C14.7273 5.42794 16.1925 6.89322 18 6.89322ZM18 1.98412C18.9038 1.98412 19.6364 2.71671 19.6364 3.62048C19.6364 4.52425 18.9038 5.25685 18 5.25685C17.0963 5.25685 16.3637 4.52425 16.3637 3.62048C16.3637 2.71671 17.0963 1.98412 18 1.98412Z" fill="#3F61E0"/>
<path d="M19.1888 7.42401C19.1743 7.42425 19.1599 7.42464 19.1455 7.42503H16.8546C14.3929 7.35683 12.342 9.29725 12.2738 11.759C12.2734 11.7734 12.2731 11.7879 12.2728 11.8023V12.4568C12.2728 12.9068 12.7228 13.1523 13.1728 13.1523H22.8273C23.2773 13.1523 23.7273 12.9068 23.7273 12.4568V11.8023C23.683 9.34 21.651 7.37977 19.1888 7.42401ZM13.9909 11.5159C14.0728 10.2886 15.341 9.06132 16.8545 9.06132H19.1454C20.6591 9.06132 21.9273 10.2886 22.009 11.5159H13.9909Z" fill="#3F61E0"/>
<path d="M4.70458 21.1296C5.15646 21.1296 5.52276 20.7633 5.52276 20.3114C5.52018 16.5265 7.23563 12.9451 10.1864 10.575C10.5101 10.2597 10.5168 9.7417 10.2015 9.418C9.9272 9.13642 9.49137 9.08975 9.16367 9.30681C5.82274 11.9817 3.8806 16.0315 3.8864 20.3114C3.8864 20.7633 4.2527 21.1296 4.70458 21.1296Z" fill="#D2D8F1"/>
<path d="M21.9874 32.127C21.9809 32.1293 21.9745 32.1316 21.9682 32.134C19.4062 32.9916 16.6347 32.9916 14.0727 32.134C13.6436 32.0003 13.1869 32.2378 13.05 32.6659C12.8946 33.066 13.093 33.5164 13.4931 33.6718C13.5088 33.6779 13.5247 33.6836 13.5409 33.6886C16.4465 34.6706 19.5944 34.6706 22.4999 33.6886C22.9336 33.5339 23.1682 33.0648 23.0318 32.6249C22.881 32.1991 22.4133 31.9761 21.9874 32.127Z" fill="#D2D8F1"/>
<path d="M25.2 10.125C28.5137 12.4579 30.483 16.2589 30.4773 20.3114C30.4773 20.7633 30.8436 21.1296 31.2955 21.1296C31.7474 21.1296 32.1137 20.7633 32.1137 20.3114C32.1023 15.7271 29.8778 11.4305 26.1409 8.77498C25.7681 8.51517 25.2553 8.60671 24.9954 8.97951C24.7356 9.35231 24.8272 9.86519 25.2 10.125Z" fill="#D2D8F1"/>
<path d="M5.72729 29.3932C7.53475 29.3932 9.00003 27.9279 9.00003 26.1205C9.00003 24.313 7.53475 22.8478 5.72729 22.8478C3.91983 22.8478 2.45456 24.313 2.45456 26.1205C2.45456 27.928 3.91983 29.3932 5.72729 29.3932ZM5.72729 24.4841C6.63106 24.4841 7.36366 25.2167 7.36366 26.1205C7.36366 27.0243 6.63106 27.7569 5.72729 27.7569C4.82352 27.7569 4.09093 27.0243 4.09093 26.1205C4.09093 25.2167 4.82352 24.4841 5.72729 24.4841Z" fill="#3F61E0"/>
<path d="M6.91608 29.924C6.90159 29.9243 6.88718 29.9247 6.87278 29.925H4.5818C2.12004 29.8568 0.0691432 31.7973 0.00094164 34.259C0.000550127 34.2734 0.000236916 34.2879 -7.62939e-05 34.3023V34.9569C-7.62939e-05 35.4069 0.449929 35.6523 0.899934 35.6523H10.5545C11.0045 35.6523 11.4545 35.4069 11.4545 34.9569V34.3023C11.4103 31.84 9.37838 29.8798 6.91608 29.924ZM1.7182 34.0159C1.80002 32.7887 3.06821 31.5613 4.5818 31.5613H6.8727C8.38637 31.5613 9.65455 32.7886 9.7363 34.0159H1.7182Z" fill="#3F61E0"/>
<path d="M27 26.1205C27 27.9279 28.4653 29.3932 30.2727 29.3932C32.0802 29.3932 33.5455 27.9279 33.5455 26.1205C33.5455 24.313 32.0802 22.8478 30.2727 22.8478C28.4653 22.8478 27 24.313 27 26.1205ZM31.9091 26.1205C31.9091 27.0243 31.1765 27.7569 30.2727 27.7569C29.369 27.7569 28.6364 27.0243 28.6364 26.1205C28.6364 25.2167 29.369 24.4841 30.2727 24.4841C31.1765 24.4841 31.9091 25.2167 31.9091 26.1205Z" fill="#3F61E0"/>
<path d="M31.4615 29.924C31.447 29.9243 31.4326 29.9247 31.4182 29.925H29.1273C26.6655 29.8568 24.6146 31.7973 24.5464 34.259C24.5461 34.2734 24.5457 34.2879 24.5454 34.3023V34.9569C24.5454 35.4069 24.9954 35.6523 25.4454 35.6523H35.1C35.55 35.6523 36 35.4069 36 34.9569V34.3023C35.9558 31.84 33.9238 29.8798 31.4615 29.924ZM26.2636 34.0159C26.3454 32.7887 27.6136 31.5613 29.1272 31.5613H31.4181C32.9318 31.5613 34.2 32.7886 34.2817 34.0159H26.2636Z" fill="#3F61E0"/>
</g>
<defs>
<clipPath id="clip0">
<rect width="36" height="36" fill="white"/>
</clipPath>
</defs>
</svg>
