<svg width="26" height="12" viewBox="0 0 26 12" fill="none" xmlns="http://www.w3.org/2000/svg">
<g clip-path="url(#clip0)">
<path fill-rule="evenodd" clip-rule="evenodd" d="M11.9438 8.261C10.8042 8.17682 9.67919 7.95405 8.59352 7.59764L7.34386 10.6129L5.39231 9.80465L6.64197 6.78938C5.6235 6.27294 4.67147 5.63478 3.80678 4.88892L1.4934 7.20314L0 5.70807L2.31254 3.39553C1.68957 2.67097 1.14151 1.88523 0.67676 1.05032H0.682624L2.57136 0C3.60483 1.85938 5.11672 3.40856 6.95037 4.48701C8.78403 5.56547 10.8727 6.13395 13 6.13356C15.1273 6.13387 17.2159 5.56534 19.0496 4.4869C20.8832 3.40845 22.3951 1.85932 23.4286 0L25.3174 1.05032H25.3224C24.8579 1.88541 24.3099 2.67118 23.6866 3.39553L26 5.70807L24.5058 7.20314L22.1957 4.88892C21.3297 5.63473 20.3762 6.2726 19.3564 6.78854L20.6069 9.80381L18.6553 10.6121L17.4048 7.5968C16.3192 7.95328 15.1941 8.17604 14.0545 8.26016V11.5267H11.9438V8.26016V8.261Z" fill="black"/>
</g>
<defs>
<clipPath id="clip0">
<rect width="26" height="11.5301" fill="white"/>
</clipPath>
</defs>
</svg>
