<svg width="34" height="36" viewBox="0 5 34 36" fill="none" xmlns="http://www.w3.org/2000/svg">
<g id="Group 3">
<path id="35%" d="M3.42773 29.626H4.72852C5.38477 29.6201 5.90332 29.4502 6.28418 29.1162C6.6709 28.7822 6.86426 28.2988 6.86426 27.666C6.86426 27.0566 6.70312 26.585 6.38086 26.251C6.06445 25.9111 5.57812 25.7412 4.92188 25.7412C4.34766 25.7412 3.87598 25.9082 3.50684 26.2422C3.1377 26.5703 2.95312 27.001 2.95312 27.5342H0.817383C0.817383 26.8779 0.990234 26.2803 1.33594 25.7412C1.6875 25.2021 2.17383 24.7832 2.79492 24.4844C3.42188 24.1797 4.12207 24.0273 4.89551 24.0273C6.17285 24.0273 7.1748 24.3496 7.90137 24.9941C8.63379 25.6328 9 26.5234 9 27.666C9 28.2402 8.81543 28.7822 8.44629 29.292C8.08301 29.7959 7.61133 30.1768 7.03125 30.4346C7.73438 30.6748 8.26758 31.0527 8.63086 31.5684C9 32.084 9.18457 32.6992 9.18457 33.4141C9.18457 34.5625 8.78906 35.4766 7.99805 36.1562C7.21289 36.8359 6.17871 37.1758 4.89551 37.1758C3.66504 37.1758 2.65723 36.8477 1.87207 36.1914C1.08691 35.5352 0.694336 34.6621 0.694336 33.5723H2.83008C2.83008 34.1348 3.01758 34.5918 3.39258 34.9434C3.77344 35.2949 4.2832 35.4707 4.92188 35.4707C5.58398 35.4707 6.10547 35.2949 6.48633 34.9434C6.86719 34.5918 7.05762 34.082 7.05762 33.4141C7.05762 32.7402 6.8584 32.2217 6.45996 31.8584C6.06152 31.4951 5.46973 31.3135 4.68457 31.3135H3.42773V29.626ZM11.7598 30.6543L12.4541 24.2031H19.3271V26.0488H14.2295L13.8779 29.1074C14.4697 28.7676 15.1377 28.5977 15.8818 28.5977C17.1006 28.5977 18.0469 28.9873 18.7207 29.7666C19.4004 30.5459 19.7402 31.5947 19.7402 32.9131C19.7402 34.2139 19.3652 35.251 18.6152 36.0244C17.8652 36.792 16.8369 37.1758 15.5303 37.1758C14.3584 37.1758 13.3857 36.8447 12.6123 36.1826C11.8447 35.5146 11.4287 34.6357 11.3643 33.5459H13.4297C13.5117 34.167 13.7344 34.6445 14.0977 34.9785C14.4609 35.3066 14.9355 35.4707 15.5215 35.4707C16.1777 35.4707 16.6875 35.2363 17.0508 34.7676C17.4199 34.2988 17.6045 33.6602 17.6045 32.8516C17.6045 32.0723 17.4023 31.457 16.998 31.0059C16.5938 30.5488 16.0371 30.3203 15.3281 30.3203C14.9414 30.3203 14.6133 30.373 14.3438 30.4785C14.0742 30.5781 13.7812 30.7773 13.4648 31.0762L11.7598 30.6543ZM21.3311 26.6641C21.3311 25.8906 21.5801 25.2578 22.0781 24.7656C22.5762 24.2676 23.2295 24.0186 24.0381 24.0186C24.8584 24.0186 25.5146 24.2676 26.0068 24.7656C26.5049 25.2578 26.7539 25.9053 26.7539 26.708V27.3408C26.7539 28.1084 26.5049 28.7383 26.0068 29.2305C25.5146 29.7227 24.8643 29.9688 24.0557 29.9688C23.2646 29.9688 22.6113 29.7285 22.0957 29.248C21.5859 28.7617 21.3311 28.1084 21.3311 27.2881V26.6641ZM22.8252 27.3408C22.8252 27.7451 22.9365 28.0732 23.1592 28.3252C23.3877 28.5713 23.6865 28.6943 24.0557 28.6943C24.4189 28.6943 24.7119 28.5713 24.9346 28.3252C25.1572 28.0732 25.2686 27.7334 25.2686 27.3057V26.6641C25.2686 26.2598 25.1543 25.9316 24.9258 25.6797C24.7031 25.4277 24.4072 25.3018 24.0381 25.3018C23.6689 25.3018 23.373 25.4307 23.1504 25.6885C22.9336 25.9404 22.8252 26.2744 22.8252 26.6904V27.3408ZM27.4834 33.8623C27.4834 33.0771 27.7383 32.4414 28.248 31.9551C28.7578 31.4688 29.4082 31.2256 30.1992 31.2256C30.9961 31.2256 31.6465 31.4688 32.1504 31.9551C32.6602 32.4414 32.915 33.0977 32.915 33.9238V34.5479C32.915 35.3096 32.6689 35.9395 32.1768 36.4375C31.6904 36.9297 31.0371 37.1758 30.2168 37.1758C29.3965 37.1758 28.7344 36.9326 28.2305 36.4463C27.7324 35.9541 27.4834 35.3066 27.4834 34.5039V33.8623ZM28.9775 34.5479C28.9775 34.9463 29.0918 35.2744 29.3203 35.5322C29.5547 35.7842 29.8535 35.9102 30.2168 35.9102C30.5918 35.9102 30.8848 35.79 31.0957 35.5498C31.3125 35.3037 31.4209 34.9609 31.4209 34.5215V33.8623C31.4209 33.4521 31.3066 33.124 31.0781 32.8779C30.8496 32.6318 30.5566 32.5088 30.1992 32.5088C29.8359 32.5088 29.54 32.6318 29.3115 32.8779C29.0889 33.124 28.9775 33.4639 28.9775 33.8975V34.5479ZM24.4951 36.042L23.3965 35.4092L29.6455 25.4072L30.7441 26.04L24.4951 36.042Z" fill="#3F61E0"/>
<g id="XMLID 6">
<mask id="path-2-inside-1" fill="white">
<path d="M5.03616 7.36171C5.76416 7.23701 6.45538 7.72615 6.5801 8.45428L7.32779 12.8213C10.8341 8.77273 16.7156 7.29605 21.851 9.58623C25.6308 11.272 28.3241 14.7136 29.055 18.7925C29.1852 19.5196 28.7015 20.2147 27.9744 20.345C27.2473 20.4752 26.5523 19.9914 26.4221 19.2644C25.8476 16.0585 23.7315 13.3539 20.7616 12.0293C16.7044 10.22 12.0543 11.403 9.30526 14.6244L14.132 13.798C14.8599 13.6734 15.5513 14.1625 15.6759 14.8907C15.8005 15.6188 15.3114 16.31 14.5833 16.4346L6.81718 17.7642C6.45315 17.8265 6.09833 17.7353 5.81899 17.5376C5.53965 17.34 5.33557 17.0356 5.27325 16.6716L3.94368 8.90583C3.81889 8.17765 4.30808 7.48636 5.03616 7.36171Z"/>
</mask>
<path d="M5.03616 7.36171C5.76416 7.23701 6.45538 7.72615 6.5801 8.45428L7.32779 12.8213C10.8341 8.77273 16.7156 7.29605 21.851 9.58623C25.6308 11.272 28.3241 14.7136 29.055 18.7925C29.1852 19.5196 28.7015 20.2147 27.9744 20.345C27.2473 20.4752 26.5523 19.9914 26.4221 19.2644C25.8476 16.0585 23.7315 13.3539 20.7616 12.0293C16.7044 10.22 12.0543 11.403 9.30526 14.6244L14.132 13.798C14.8599 13.6734 15.5513 14.1625 15.6759 14.8907C15.8005 15.6188 15.3114 16.31 14.5833 16.4346L6.81718 17.7642C6.45315 17.8265 6.09833 17.7353 5.81899 17.5376C5.53965 17.34 5.33557 17.0356 5.27325 16.6716L3.94368 8.90583C3.81889 8.17765 4.30808 7.48636 5.03616 7.36171Z" fill="#00C11F" stroke="white" mask="url(#path-2-inside-1)"/>
</g>
</g>
</svg>
