<?xml version="1.0" encoding="utf-8"?>
<!-- Generator: Adobe Illustrator 26.0.1, SVG Export Plug-In . SVG Version: 6.00 Build 0)  -->
<svg version="1.1" id="dd" xmlns="http://www.w3.org/2000/svg" xmlns:xlink="http://www.w3.org/1999/xlink" x="0px" y="0px"
	 viewBox="0 0 197 45" style="enable-background:new 0 0 197 45;" xml:space="preserve">
<style type="text/css">
	.st0{fill:#2A609F;}
	.st1{fill:#FFFFFF;}
	.st2{fill:none;stroke:#FCFCFC;stroke-width:0.4996;stroke-miterlimit:10;}
	.st3{fill:none;stroke:#FCFCFC;stroke-width:0.3959;stroke-miterlimit:10;}
	.st4{fill:#E81F33;stroke:#FCFCFC;stroke-width:0.3968;stroke-miterlimit:10;}
	.st5{fill:#FFFFFF;stroke:#FCFCFC;stroke-width:0.3968;stroke-miterlimit:10;}
	.st6{fill:#FF0D47;stroke:#FCFCFC;stroke-width:0.3968;stroke-miterlimit:10;}
	.st7{fill:#FFFFFF;stroke:#C0C8FF;stroke-width:0.1774;stroke-miterlimit:10;}
	.st8{fill:#FFFFFF;stroke:#C0C8FF;stroke-width:0.5285;stroke-miterlimit:10;}
	.st9{fill:#FFFFFF;stroke:#C0C8FF;stroke-width:0.3523;stroke-miterlimit:10;}
	.st10{fill:#FFFFFF;stroke:#C0C8FF;stroke-width:0.3999;stroke-miterlimit:10;}
	.st11{fill:#FFFFFF;stroke:#C0C8FF;stroke-width:0.3233;stroke-miterlimit:10;}
	.st12{fill:#FFFFFF;stroke:#C0C8FF;stroke-width:0.1722;stroke-miterlimit:10;}
	.st13{fill:#351CEA;stroke:#FCFCFC;stroke-width:0.5;stroke-miterlimit:10;}
	.st14{fill:#FFFFFF;stroke:#FCFCFC;stroke-width:0.5;stroke-miterlimit:10;}
	.st15{fill:#1C0BFF;stroke:#FCFCFC;stroke-width:0.5;stroke-miterlimit:10;}
	.st16{fill:#F9F9F9;stroke:#D3D7E2;stroke-width:0.5;stroke-miterlimit:10;}
	.st17{fill:#F7F721;stroke:#F96419;stroke-width:0.25;stroke-miterlimit:10;}
	.st18{fill:#CFDAE8;stroke:#D3D7E2;stroke-width:0.5;stroke-miterlimit:10;}
	.st19{fill:#A7C9E8;}
	.st20{fill:#9CC3E5;}
	.st21{fill:#AFD1EF;}
	.st22{fill:#ABCEEF;}
	.st23{fill:#F40C0C;}
	.st24{fill:#FFF7BD;}
	.st25{fill:#A01010;}
</style>
<g id="df">
	<g id="fsdfsfds">
		<path id="jghjgjghj" class="st0" d="M17.9,5.4c7.4,0,13.4,5.8,13.4,12.9s-6,12.9-13.4,12.9S4.5,25.4,4.5,18.3S10.5,5.4,17.9,5.4z"
			/>
		<path id="jghjkgh" class="st0" d="M38.7,39.2h93.5V9.9H30.5c0.4,0.5,0.8,1,1.2,1.5c3.3,5,2.5,11.4-1.6,15.5
			c-0.3,0.3-0.7,0.6-1,0.9l0.5,0.7l0.4,0.6l0.3,0.5l0.8,1.3c0.3,0,0.6,0,0.9,0.1c0.5,0,0.9,0.2,1.3,0.5c0.2,0.2,0.4,0.3,0.6,0.6
			l4.4,6.6L38.7,39.2z"/>
		<g id="_x36_hhhju">
			<path id="hjhghj" class="st1" d="M118,15.6h8.3v3.3h-4.8v3.7h4.2v3.3h-4.2v4h4.8v3.3H118V15.6z M37,15.6h8.3v3.3h-4.8v3.7h4.2
				v3.3h-4.2v4h4.8v3.3H37V15.6z M46.3,15.6h4.2l1.3,4.3H52l1.3-4.3h4.2L53.9,24l3.9,9.1h-4.2L52,28h-0.1l-1.6,5.1H46l3.8-9.1
				L46.3,15.6z M58.9,20c0-1.4,0.4-2.5,1.2-3.3c0.8-0.8,2-1.3,3.6-1.3c1.6,0,2.8,0.4,3.5,1.1c0.8,0.7,1.1,1.7,1.1,2.9
				c0,0.1,0,0.2,0,0.2c0,0.1,0,0.2,0,0.2l-3.4,0.6c0-0.5-0.1-1-0.3-1.3c-0.2-0.3-0.5-0.5-0.9-0.5c-0.2,0-0.4,0-0.6,0.1
				c-0.1,0.1-0.3,0.2-0.3,0.3c-0.1,0.1-0.1,0.3-0.2,0.4c0,0.2-0.1,0.3-0.1,0.4V29c0,0.2,0.1,0.5,0.2,0.7c0.1,0.2,0.4,0.3,0.9,0.3
				c0.3,0,0.6-0.2,0.8-0.5s0.3-0.8,0.4-1.4l3.5,0.5c0,1.4-0.4,2.5-1.2,3.4c-0.8,0.8-1.9,1.3-3.4,1.3c-1.6,0-2.8-0.4-3.6-1.1
				c-0.7-0.7-1.1-1.8-1.1-3.3L58.9,20L58.9,20z M70.2,15.6h3.6v6.9H76v-6.9h3.6v17.5H76v-7.3h-2.3v7.3h-3.6L70.2,15.6L70.2,15.6z
				 M84.6,15.6h4.3l3.5,17.5h-3.7l-0.5-3.4h-2.7L85,33.1h-3.8L84.6,15.6z M87.2,23.6L86.8,20h-0.2l-0.4,3.6l-0.4,2.8h1.6L87.2,23.6z
				 M93.9,15.6H97l2.1,5.1l1.2,3.2h0.1v-8.3h3.5v17.5h-3L98.8,28l-1.2-3.3h-0.1v8.4h-3.6C93.9,33.1,93.9,15.6,93.9,15.6z M106.5,20
				c0-1.4,0.4-2.5,1.2-3.3c0.8-0.8,2-1.3,3.5-1.3c0.8,0,1.5,0.1,2.1,0.3s1.1,0.5,1.5,0.9s0.7,0.9,0.8,1.4c0.2,0.6,0.2,1.1,0.2,1.8
				l-3.4,0.6c0-0.5-0.1-1-0.3-1.3c-0.2-0.3-0.5-0.5-0.9-0.5c-0.2,0-0.4,0-0.6,0.1c-0.1,0.1-0.3,0.2-0.3,0.3
				c-0.1,0.1-0.1,0.3-0.2,0.4c0,0.2-0.1,0.3-0.1,0.4V29c0,0.2,0.1,0.5,0.2,0.7s0.4,0.3,0.8,0.3c0.3,0,0.6-0.1,0.8-0.3
				c0.2-0.2,0.3-0.4,0.3-0.7v-2.7h-1.2v-3h4.8v5.5c0,1.4-0.4,2.5-1.2,3.3c-0.8,0.7-1.9,1.1-3.4,1.1c-1.6,0-2.8-0.4-3.6-1.1
				c-0.7-0.7-1.1-1.8-1.1-3.3L106.5,20L106.5,20z"/>
			<path id="jujgjhgj" class="st1" d="M24.8,11.7c-1.9-1.1-3.8-2.2-5.6-3.3c-0.1-0.1-0.3-0.1-0.4,0s-0.2,0.2-0.1,0.4
				c0.1,0.5,0.2,1.1,0.4,1.6c0,0.1,0,0.2-0.1,0.2c-6.3,0.3-11.5,5.5-9.7,11.7c0,0.2,0.1,0.3,0.3,0.4c0.1,0,0.3,0,0.4-0.1
				c0.1-0.1,0.1-0.2,0.1-0.3c0.4-4.8,5.5-7.1,9.9-7.4c0.1,0,0.2,0,0.2,0.2c0.1,0.7,0.3,1.5,0.5,2.2c0,0.2,0.1,0.3,0.3,0.3
				c0.2,0,0.3-0.1,0.4-0.2c1.3-1.7,2.5-3.5,3.7-5.3C25,11.9,25,11.8,24.8,11.7z M10.9,25c1.9,1.1,3.8,2.2,5.6,3.3
				c0.1,0.1,0.3,0.1,0.4,0s0.2-0.2,0.1-0.4c-0.1-0.5-0.2-1.1-0.4-1.6c0-0.1,0-0.2,0.1-0.2c6.3-0.3,11.5-5.5,9.7-11.7
				c0-0.2-0.1-0.3-0.3-0.4c-0.1,0-0.3,0-0.4,0.1s-0.1,0.2-0.1,0.3c-0.4,4.8-5.5,7.1-9.9,7.4c-0.1,0-0.2,0-0.2-0.2
				c-0.1-0.7-0.3-1.5-0.5-2.2c0-0.2-0.1-0.3-0.3-0.3s-0.3,0.1-0.4,0.2c-1.3,1.7-2.5,3.5-3.7,5.3C10.7,24.7,10.8,24.9,10.9,25z"/>
			<path id="jujghj" class="st1" d="M36,39.2l-4.5-6.8c-0.2-0.2-0.4-0.4-0.6-0.6c-0.6-0.5-1.4-0.6-2.2-0.4l-1-1.5l-0.3-0.5L27,28.8
				l-0.5-0.7c0.4-0.3,0.7-0.6,1.1-0.9c4.2-4.2,5-10.8,1.6-15.9c-0.5-0.7-1-1.4-1.6-2c-1-1-2.2-1.8-3.4-2.4c-1.5-0.7-3.1-1.2-4.7-1.4
				c-0.5-0.1-1-0.1-1.5-0.1c-2.4,0-4.9,0.7-7.1,2c-4,2.5-6.1,6.6-6.1,10.8c0,2.4,0.7,4.8,2.1,6.9c2.8,4.2,7.8,6.3,12.7,5.8
				c1.4-0.1,2.7-0.5,4-1.1l0.5,0.8l1.7,2.6C25.1,34,25,35.1,25.6,36l5.2,7.8c0.5,0.7,1.2,1.1,2,1.1c0.4,0,0.9-0.1,1.3-0.4l0.2-0.1
				l1.8-1.1c1.1-0.7,1.4-2.1,0.7-3.2L36,39.2z M8.4,24.2c-3.3-4.9-2-11.5,2.9-14.9c0.2-0.1,0.3-0.2,0.5-0.3c2.4-1.5,5-2,7.6-1.7
				c0.1,0,0.2,0,0.2,0c2.9,0.4,5.6,1.9,7.4,4.3c0.2,0.2,0.3,0.4,0.5,0.6l0,0c0.4,0.6,0.8,1.3,1,2c0.6,1.6,0.9,3.3,0.7,4.9
				c-0.3,3.3-2.1,6.4-5.2,8.3c-1.5,0.9-3.1,1.4-4.7,1.7c-0.1,0-0.2,0-0.4,0c-2.7,0.3-5.5-0.5-7.8-2C10.2,26.4,9.2,25.4,8.4,24.2z"/>
			<path id="dfsf" class="st1" d="M185.6,9.7H132V39h53.6c3.1,0,5.6-2.4,5.6-5.4V15C191.1,12.1,188.6,9.7,185.6,9.7z"/>
		</g>
		<path id="fdfhdg" class="st0" d="M140.8,21c0,0.2,0.1,0.4,0.3,0.5c0.1,0.2,0.3,0.3,0.6,0.5s0.6,0.3,1.1,0.5c0.8,0.3,1.5,0.7,2,1
			c0.5,0.4,0.9,0.7,1.1,1.2c0.3,0.4,0.4,0.9,0.5,1.4s0.1,1.1,0.1,1.8c0,0.8-0.1,1.5-0.2,2.2c-0.1,0.7-0.4,1.2-0.8,1.7
			c-0.4,0.5-0.8,0.8-1.4,1.1c-0.6,0.3-1.4,0.4-2.3,0.4c-0.8,0-1.6-0.1-2.2-0.4c-0.6-0.2-1.1-0.6-1.5-1c-0.4-0.4-0.6-0.9-0.8-1.4
			s-0.3-1.1-0.3-1.8l3.6-0.7c0,0.6,0.1,1.1,0.3,1.4s0.5,0.5,0.9,0.5c0.3,0,0.5-0.1,0.6-0.2s0.3-0.3,0.3-0.5c0.1-0.2,0.1-0.4,0.2-0.7
			c0-0.3,0-0.5,0-0.8c0-0.4,0-0.6-0.1-0.9c-0.1-0.2-0.1-0.4-0.3-0.6c-0.1-0.2-0.3-0.3-0.5-0.4s-0.5-0.3-0.8-0.4
			c-0.9-0.4-1.6-0.7-2.1-1.1s-1-0.8-1.2-1.2c-0.3-0.4-0.5-0.9-0.6-1.4s-0.1-1-0.1-1.6c0-0.7,0.1-1.4,0.3-2s0.4-1.1,0.8-1.6
			c0.4-0.4,0.9-0.8,1.5-1c0.6-0.3,1.3-0.4,2.2-0.4s1.7,0.1,2.2,0.4c0.6,0.3,1.1,0.6,1.4,1.1c0.3,0.4,0.6,0.9,0.7,1.4
			c0.1,0.5,0.2,1,0.2,1.5l-3.5,0.7c0-0.3,0-0.5,0-0.7s-0.1-0.4-0.2-0.6c-0.1-0.2-0.2-0.3-0.3-0.4s-0.3-0.2-0.6-0.2
			c-0.2,0-0.4,0.1-0.6,0.2c-0.1,0.1-0.2,0.2-0.3,0.4c-0.1,0.2-0.1,0.3-0.2,0.5c0,0.2,0,0.4,0,0.6C140.7,20.6,140.7,20.8,140.8,21z
			 M184.5,28.8c0,1.5-0.4,2.6-1.2,3.3c-0.8,0.7-1.9,1.1-3.5,1.1c-3.1,0-4.6-1.5-4.6-4.4v-9c0-1.5,0.4-2.6,1.2-3.3
			c0.8-0.7,2-1.1,3.4-1.1c1.6,0,2.8,0.4,3.5,1.1c0.8,0.7,1.1,1.8,1.1,3.3v9C184.4,28.8,184.5,28.8,184.5,28.8z M179.9,18.6
			c-0.3,0-0.6,0.1-0.8,0.3c-0.2,0.2-0.3,0.4-0.3,0.8V29c0,0.4,0.1,0.7,0.3,0.8c0.2,0.2,0.5,0.2,0.8,0.2s0.5-0.1,0.7-0.2
			c0.2-0.2,0.3-0.4,0.3-0.8v-9.3c0-0.4-0.1-0.7-0.3-0.8C180.4,18.7,180.2,18.6,179.9,18.6z M172.9,33.1h-3.6v-8.2h-0.1l-0.9,2.7
			l-0.7,2h-2.4l-0.8-2.2l-0.8-2.6h-0.1v8.3H160V15.6h3.3l1.8,4.7l1.2,3.5h0.2l1.3-3.5l1.8-4.6h3.3L172.9,33.1L172.9,33.1z
			 M157.7,28.8c0,1.5-0.4,2.6-1.2,3.3c-0.8,0.7-1.9,1.1-3.5,1.1c-3.1,0-4.6-1.5-4.6-4.4V15.6h3.6v13.3c0,0.4,0.1,0.7,0.3,0.8
			c0.2,0.2,0.5,0.2,0.8,0.2s0.5-0.1,0.7-0.2c0.2-0.2,0.3-0.4,0.3-0.8V15.6h3.6L157.7,28.8L157.7,28.8z"/>
		<line id="dfsfsf" class="st2" x1="188.3" y1="0" x2="188.4" y2="8.8"/>
		<g id="dfgdggfg">
			<line id="f4f5f5" class="st3" x1="181.1" y1="0" x2="181.1" y2="2.6"/>
			<ellipse id="gdhjdgdgdgs" class="st4" cx="181.1" cy="10.5" rx="6.5" ry="6.6"/>
			<path id="_x35_gdgdfg" class="st5" d="M179.6,6.6l-1.1-0.5c0,0-0.9,0.8-1.2,1.5c-0.1,0.3-0.3,1-0.3,1.4c-0.1,1.1,0.1,1.9,0.1,1.9
				s0.4-1.3,0.7-1.9c0.1-0.3,0.5-0.9,0.9-1.4C178.9,7.3,179.6,6.6,179.6,6.6z"/>
			<polygon id="hdfgg" class="st6" points="179.4,4 179.4,2.9 181.1,2.6 182.6,2.9 182.6,4 			"/>
		</g>
		<g id="sdfsdfsfsfdff" shape-rendering="auto" transform="translate(0 -415.93)">
			<path id="_x34_f5f" color-rendering="auto" image-rendering="auto" class="st1" d="M181.1,422.9v0.8l-0.7-0.4l-0.3,0.6l1,0.6v3.6
				l-1,0.6l0.3,0.6l0.7-0.4v0.9h0.7v-0.9l0.6,0.4l0.3-0.6l-1-0.6v-3.6l1-0.6l-0.3-0.6l-0.6,0.4v-0.9L181.1,422.9L181.1,422.9z"/>
			<path id="_x34_f4f4f" color-rendering="auto" image-rendering="auto" class="st1" d="M182.8,424v1.1l-3.1,1.8l-1-0.6l-0.3,0.6
				l0.7,0.4l-0.7,0.4l0.3,0.6l0.7-0.4v0.7h0.7v-1.1l3.1-1.8l1,0.6l0.3-0.6l-0.6-0.4l0.7-0.4l-0.3-0.6l-0.7,0.4V424H182.8L182.8,424z
				"/>
			<path id="fsdfhh" color-rendering="auto" image-rendering="auto" class="st1" d="M179.4,424v0.8l-0.7-0.4l-0.3,0.6l0.7,0.4
				l-0.6,0.4l0.3,0.6l1-0.6l3.1,1.8v1.1h0.7V428l0.7,0.4l0.3-0.6l-0.7-0.4l0.7-0.4l-0.3-0.6l-1,0.6l-3.1-1.8V424H179.4L179.4,424z"
				/>
		</g>
		<g id="hddfddd" shape-rendering="auto" transform="translate(0 -415.93)">
			<path id="gdsfds" color-rendering="auto" image-rendering="auto" class="st7" d="M159.3,423.1v0.6l-0.5-0.3l-0.2,0.4l0.7,0.4v2.6
				l-0.7,0.4l0.2,0.4l0.5-0.3v0.6h0.5v-0.6l0.4,0.3l0.2-0.4l-0.7-0.4v-2.6l0.7-0.4l-0.2-0.4l-0.4,0.3V423L159.3,423.1L159.3,423.1z"
				/>
			<path id="dsfdcvv" color-rendering="auto" image-rendering="auto" class="st7" d="M160.5,423.8v0.8l-2.2,1.3l-0.7-0.4l-0.2,0.4
				l0.5,0.3l-0.5,0.3l0.2,0.4l0.5-0.3v0.5h0.5v-0.8l2.2-1.3l0.7,0.4l0.2-0.4l-0.4-0.3l0.5-0.3l-0.2-0.4l-0.5,0.3v-0.5H160.5
				L160.5,423.8z"/>
			<path id="fhdfdvv" color-rendering="auto" image-rendering="auto" class="st7" d="M158.1,423.8v0.6l-0.5-0.3l-0.2,0.4l0.5,0.3
				l-0.4,0.3l0.2,0.4l0.7-0.4l2.2,1.3v0.8h0.5v-0.5l0.5,0.3l0.2-0.4l-0.5-0.3l0.5-0.3l-0.2-0.4l-0.7,0.4l-2.2-1.3v-0.9H158.1
				L158.1,423.8z"/>
		</g>
		<g id="gfddvvd" shape-rendering="auto" transform="translate(0 -415.93)">
			<path id="sfsfhsddf" color-rendering="auto" image-rendering="auto" class="st7" d="M115.8,445.5v0.6l-0.5-0.3l-0.2,0.4l0.7,0.4
				v2.6l-0.7,0.4l0.2,0.4l0.5-0.3v0.6h0.5v-0.6l0.4,0.3l0.2-0.4l-0.7-0.4v-2.6l0.7-0.4l-0.2-0.4l-0.4,0.3v-0.6H115.8L115.8,445.5z"
				/>
			<path id="fsdfgsfs" color-rendering="auto" image-rendering="auto" class="st7" d="M117,446.3v0.8l-2.2,1.3l-0.7-0.4l-0.2,0.4
				l0.5,0.3l-0.5,0.3l0.2,0.4l0.5-0.3v0.5h0.5v-0.8l2.2-1.3l0.7,0.4l0.2-0.4l-0.4-0.3l0.5-0.3l-0.2-0.4l-0.5,0.3v-0.5H117L117,446.3
				z"/>
			<path id="dfghhd" color-rendering="auto" image-rendering="auto" class="st7" d="M114.6,446.3v0.6l-0.5-0.3l-0.2,0.4l0.5,0.3
				l-0.4,0.3l0.2,0.4l0.7-0.4l2.2,1.3v0.8h0.5v-0.5l0.5,0.3l0.2-0.4l-0.5-0.3l0.5-0.3l-0.2-0.4l-0.7,0.4l-2.2-1.3v-0.9H114.6
				L114.6,446.3z"/>
		</g>
		<g id="fsdfds_00000120517756498141071820000014958766029180433288_" shape-rendering="auto" transform="translate(0 -415.93)">
			<path id="sfsdfccg" color-rendering="auto" image-rendering="auto" class="st8" d="M139.7,417.7v1.8l-1.5-0.9l-0.6,1.2l2.1,1.2
				v7.7l-2.1,1.2l0.6,1.2l1.5-0.9v1.8h1.5v-1.8l1.2,0.9l0.6-1.2l-2.1-1.2V421l2.1-1.2l-0.6-1.2l-1.2,0.9v-1.8L139.7,417.7
				L139.7,417.7z"/>
			<path id="dfsghd" color-rendering="auto" image-rendering="auto" class="st8" d="M143.3,420.1v2.4l-6.6,3.9l-2.1-1.2l-0.6,1.2
				l1.5,0.9l-1.5,0.9l0.6,1.2l1.5-0.9v1.5h1.5v-2.4l6.6-3.9l2.1,1.2l0.6-1.2l-1.2-0.9l1.5-0.9l-0.6-1.2l-1.5,0.9v-1.5H143.3
				L143.3,420.1z"/>
			<path id="ghd" color-rendering="auto" image-rendering="auto" class="st8" d="M136.1,420.1v1.8l-1.5-0.9l-0.6,1.2l1.5,0.9
				l-1.2,0.9l0.6,1.2l2.1-1.2l6.6,3.9v2.4h1.5v-1.5l1.5,0.9l0.6-1.2l-1.5-0.9l1.5-0.9l-0.6-1.2l-2.1,1.2l-6.6-3.9v-2.7L136.1,420.1
				L136.1,420.1z"/>
		</g>
		<g id="dfsfgd" shape-rendering="auto" transform="translate(0 -415.93)">
			<path id="fdfsfffffff" color-rendering="auto" image-rendering="auto" class="st9" d="M84.5,422.7v1.2l-1-0.6l-0.4,0.8l1.4,0.8
				v5.2l-1.4,0.8l0.4,0.8l1-0.6v1.2h1V431l0.8,0.6l0.4-0.8l-1.4-0.8v-5.2l1.4-0.8l-0.4-0.8l-0.8,0.6v-1.2L84.5,422.7L84.5,422.7z"/>
			
				<path id="dfsfsdf_00000155829095869399533480000002699253655540947882_" color-rendering="auto" image-rendering="auto" class="st9" d="
				M86.8,424.2v1.6l-4.4,2.6l-1.4-0.8l-0.4,0.8l1,0.6l-1,0.6l0.4,0.8l1-0.6v1h1v-1.6l4.4-2.6l1.4,0.8l0.4-0.8l-0.8-0.6l1-0.6
				l-0.4-0.8l-1,0.6v-1H86.8L86.8,424.2z"/>
			<path id="adggdsfdd" color-rendering="auto" image-rendering="auto" class="st9" d="M82.1,424.2v1.2l-1-0.6l-0.4,0.8l1,0.6
				l-0.8,0.6l0.4,0.8l1.4-0.8l4.4,2.6v1.6h1v-1l1,0.6l0.4-0.8l-1-0.6l1-0.6l-0.4-0.8l-1.4,0.8l-4.4-2.6v-1.8L82.1,424.2L82.1,424.2z
				"/>
		</g>
		<g id="sfsfgdv" shape-rendering="auto" transform="translate(0 -415.93)">
			<path id="sf4fshgddf" color-rendering="auto" image-rendering="auto" class="st9" d="M68.6,450.2v1.2l-1-0.6l-0.4,0.8l1.4,0.8
				v5.2l-1.4,0.8l0.4,0.8l1-0.6v1.2h1v-1.2l0.8,0.6l0.4-0.8l-1.4-0.8v-5.2l1.4-0.8l-0.4-0.8l-0.8,0.6v-1.2H68.6L68.6,450.2z"/>
			<path id="dsf4fdsf" color-rendering="auto" image-rendering="auto" class="st9" d="M70.9,451.7v1.6l-4.4,2.6l-1.4-0.8l-0.4,0.8
				l1,0.6l-1,0.6l0.4,0.8l1-0.6v1h1v-1.6l4.4-2.6l1.4,0.8l0.4-0.8l-0.8-0.6l1-0.6l-0.4-0.8l-1,0.6v-1H70.9L70.9,451.7z"/>
			<path id="dsfsfdgsd" color-rendering="auto" image-rendering="auto" class="st9" d="M66.2,451.7v1.2l-1-0.6l-0.4,0.8l1,0.6
				l-0.8,0.6l0.4,0.8l1.4-0.8l4.4,2.6v1.6h1v-1l1,0.6l0.4-0.8l-1-0.6l1-0.6l-0.4-0.8l-1.4,0.8l-4.4-2.6v-1.8L66.2,451.7L66.2,451.7z
				"/>
		</g>
		<g id="dfsdsc" shape-rendering="auto" transform="translate(0 -415.93)">
			<path id="dfsdfsdf" color-rendering="auto" image-rendering="auto" class="st10" d="M132.5,448.3v1.4l-1.1-0.7l-0.5,0.9l1.6,0.9
				v5.9l-1.6,0.9l0.5,0.9l1.1-0.7v1.4h1.1v-1.4l0.9,0.7l0.5-0.9l-1.6-0.9v-5.9l1.6-0.9l-0.5-0.9l-0.9,0.7v-1.4H132.5L132.5,448.3z"
				/>
			<path id="fdsdfc" color-rendering="auto" image-rendering="auto" class="st10" d="M135.2,450.1v1.8l-5,2.9l-1.6-0.9l-0.5,0.9
				l1.1,0.7l-1.1,0.7l0.5,0.9l1.1-0.7v1.1h1.1v-1.8l5-2.9l1.6,0.9l0.5-0.9l-0.9-0.7l1.1-0.7l-0.5-0.9l-1.1,0.7v-1.1H135.2
				L135.2,450.1z"/>
			<path id="dsfsdfsa" color-rendering="auto" image-rendering="auto" class="st10" d="M129.8,450.1v1.4l-1.1-0.7l-0.5,0.9l1.1,0.7
				l-0.9,0.7l0.5,0.9l1.6-0.9l5,2.9v1.8h1.1v-1.1l1.1,0.7l0.5-0.9l-1.1-0.7l1.1-0.7l-0.5-0.9l-1.6,0.9l-5-2.9v-2L129.8,450.1
				L129.8,450.1z"/>
		</g>
		<g id="gdfgdgf" shape-rendering="auto" transform="translate(0 -415.93)">
			<path id="fvdvdfs" color-rendering="auto" image-rendering="auto" class="st11" d="M186.6,449.7v1.1l-0.9-0.5l-0.4,0.7l1.3,0.7
				v4.7l-1.3,0.7l0.4,0.7l0.9-0.5v1.1h0.9v-1.1l0.7,0.5l0.4-0.7l-1.3-0.7v-4.7l1.3-0.7l-0.4-0.7l-0.7,0.5v-1.1H186.6L186.6,449.7z"
				/>
			<path id="gdfggdfgvdv" color-rendering="auto" image-rendering="auto" class="st11" d="M188.8,451.2v1.5l-4,2.4l-1.3-0.7
				l-0.4,0.7l0.9,0.5l-0.9,0.5l0.4,0.7l0.9-0.5v0.9h0.9v-1.5l4-2.4l1.3,0.7l0.4-0.7l-0.7-0.5l0.9-0.5l-0.4-0.7l-0.9,0.5v-0.9H188.8
				L188.8,451.2z"/>
			<path id="gdfg5gdg" color-rendering="auto" image-rendering="auto" class="st11" d="M184.5,451.2v1.1l-0.9-0.5l-0.4,0.7l0.9,0.5
				l-0.7,0.5l0.4,0.7l1.3-0.7l4,2.4v1.5h0.9v-0.9l0.9,0.5l0.4-0.7l-0.9-0.5l0.9-0.5l-0.4-0.7l-1.3,0.7l-4-2.4v-1.6h-1.1L184.5,451.2
				L184.5,451.2z"/>
		</g>
		<g id="gdfggdfg" shape-rendering="auto" transform="translate(0 -415.93)">
			<path id="g5gdgggfdg" color-rendering="auto" image-rendering="auto" class="st11" d="M16.9,450.8v1.1l-0.9-0.5l-0.4,0.7l1.3,0.7
				v4.7l-1.3,0.7L16,459l0.9-0.5v1.1h0.9v-1.1l0.7,0.5l0.4-0.7l-1.3-0.7v-4.7l1.3-0.7l-0.4-0.7l-0.7,0.5v-1.1L16.9,450.8L16.9,450.8
				z"/>
			<path id="dgg5g5gd" color-rendering="auto" image-rendering="auto" class="st11" d="M19.1,452.3v1.5l-4,2.4l-1.3-0.7l-0.4,0.7
				l0.9,0.5l-0.9,0.5l0.4,0.7l0.9-0.5v0.9h0.9v-1.5l4-2.4l1.3,0.7l0.4-0.7l-0.7-0.5l0.9-0.5l-0.4-0.7l-0.9,0.5v-0.9H19.1L19.1,452.3
				z"/>
			<path id="gdfgdgtgd" color-rendering="auto" image-rendering="auto" class="st11" d="M14.8,452.3v1.1l-0.9-0.5l-0.4,0.7l0.9,0.5
				l-0.7,0.5l0.4,0.7l1.3-0.7l4,2.4v1.5h0.9v-0.9l0.9,0.5l0.4-0.7l-0.9-0.5l0.9-0.5l-0.4-0.7l-1.3,0.7l-4-2.4v-1.6h-1.1
				C14.8,452.4,14.8,452.3,14.8,452.3z"/>
		</g>
		<g id="g5ggjhf" shape-rendering="auto" transform="translate(0 -415.93)">
			<path id="fdgd5g5g" color-rendering="auto" image-rendering="auto" class="st12" d="M51.4,423.2v0.6l-0.5-0.3l-0.2,0.4l0.7,0.4
				v2.5l-0.7,0.4l0.2,0.4l0.5-0.3v0.6h0.5v-0.6l0.4,0.3l0.2-0.4l-0.7-0.4v-2.5l0.7-0.4l-0.2-0.4l-0.4,0.3v-0.6H51.4L51.4,423.2z"/>
			<path id="gdg5gdgf" color-rendering="auto" image-rendering="auto" class="st12" d="M52.5,424v0.8l-2.1,1.2l-0.7-0.4l-0.2,0.4
				l0.5,0.3l-0.5,0.3l0.2,0.4l0.5-0.3v0.5h0.5v-0.8l2.1-1.2l0.7,0.4l0.2-0.4l-0.4-0.3l0.5-0.3l-0.2-0.4l-0.5,0.3V424H52.5L52.5,424z
				"/>
			<path id="gfdg5gd" color-rendering="auto" image-rendering="auto" class="st12" d="M50.2,424v0.6l-0.5-0.3l-0.2,0.4L50,425
				l-0.4,0.3l0.2,0.4l0.7-0.4l2.1,1.2v0.8h0.5v-0.5l0.5,0.3l0.2-0.4l-0.5-0.3l0.5-0.3l-0.2-0.4l-0.7,0.4l-2.1-1.2V424H50.2L50.2,424
				z"/>
		</g>
		<g id="fsdfghgdd" shape-rendering="auto" transform="translate(0 -415.93)">
			<path id="g5ggfdg" color-rendering="auto" image-rendering="auto" class="st12" d="M103.9,452v0.6l-0.5-0.3l-0.2,0.4l0.7,0.4v2.5
				l-0.7,0.4l0.2,0.4l0.5-0.3v0.6h0.5v-0.6l0.4,0.3l0.2-0.4l-0.7-0.4v-2.5l0.7-0.4l-0.2-0.4l-0.4,0.3V452H103.9L103.9,452z"/>
			<path id="g5gg" color-rendering="auto" image-rendering="auto" class="st12" d="M105.1,452.8v0.8l-2.1,1.2l-0.7-0.4l-0.2,0.4
				l0.5,0.3l-0.5,0.3l0.2,0.4l0.5-0.3v0.5h0.5v-0.8l2.1-1.2l0.7,0.4l0.2-0.4l-0.4-0.3l0.5-0.3l-0.2-0.4l-0.5,0.3v-0.5H105.1
				L105.1,452.8z"/>
			<path id="fgd" color-rendering="auto" image-rendering="auto" class="st12" d="M102.7,452.8v0.6l-0.5-0.3l-0.2,0.4l0.5,0.3
				l-0.4,0.3l0.2,0.4l0.7-0.4l2.1,1.2v0.8h0.5v-0.5l0.5,0.3l0.2-0.4l-0.5-0.3l0.5-0.3l-0.2-0.4l-0.7,0.4l-2.1-1.2v-0.8h-0.6V452.8z"
				/>
		</g>
		<g id="fsdfsf_00000110435981863704738860000010124452621787101871_" shape-rendering="auto" transform="translate(0 -415.93)">
			<path id="_x34_53" color-rendering="auto" image-rendering="auto" class="st12" d="M165.9,448.6v0.6l-0.5-0.3l-0.2,0.4l0.7,0.4
				v2.5l-0.7,0.4l0.2,0.4l0.5-0.3v0.6h0.5v-0.6l0.4,0.3l0.2-0.4l-0.7-0.4v-2.5l0.7-0.4l-0.2-0.4l-0.4,0.3v-0.6H165.9L165.9,448.6z"
				/>
			<path id="_x35_4" color-rendering="auto" image-rendering="auto" class="st12" d="M167.1,449.4v0.8l-2.1,1.2l-0.7-0.4l-0.2,0.4
				l0.5,0.3l-0.5,0.3l0.2,0.4l0.5-0.3v0.5h0.5v-0.8l2.1-1.2l0.7,0.4l0.2-0.4l-0.4-0.3l0.5-0.3l-0.2-0.4l-0.5,0.3v-0.5H167.1
				L167.1,449.4z"/>
			<path id="_x32_1231" color-rendering="auto" image-rendering="auto" class="st12" d="M164.8,449.4v0.6l-0.5-0.3l-0.2,0.4l0.5,0.3
				l-0.4,0.3l0.2,0.4l0.7-0.4l2.1,1.2v0.8h0.5v-0.5l0.5,0.3l0.2-0.4l-0.5-0.3l0.5-0.3l-0.2-0.4l-0.7,0.4l-2.1-1.2v-0.8h-0.6V449.4z"
				/>
		</g>
		<circle id="fsdfs" class="st13" cx="188.5" cy="18.7" r="8.3"/>
		<path id="fsdfds" class="st14" d="M186.5,13.8l-1.4-0.7c0,0-1.2,1-1.5,1.9c-0.2,0.4-0.4,1.3-0.4,1.7c-0.1,1.3,0.1,2.4,0.1,2.4
			s0.5-1.7,0.9-2.4c0.2-0.4,0.6-1.1,1.1-1.7C185.5,14.7,186.5,13.8,186.5,13.8z"/>
		<polygon id="fsdfsf" class="st15" points="186.3,10.6 186.3,9.2 188.4,8.8 190.3,9.2 190.3,10.6 		"/>
	</g>
	<path id="dggdgdg" color-rendering="auto" image-rendering="auto" class="st1" d="M188.1,14.8v1.1l-0.8-0.5l-0.4,0.7l1.3,0.7v4.6
		l-1.3,0.7l0.4,0.7l0.8-0.5v1.1h0.8v-1.1l0.8,0.5l0.4-0.7l-1.2-0.7v-4.6l1.2-0.7l-0.4-0.7l-0.8,0.5v-1.1H188.1L188.1,14.8z"/>
	<path id="gfdgdg" color-rendering="auto" image-rendering="auto" class="st1" d="M190.3,16.2v1.4l-4,2.3l-1.3-0.7l-0.4,0.7l0.8,0.5
		l-0.9,0.5l0.4,0.7l1-0.6v0.9h0.8v-1.4l4-2.3l1.2,0.7l0.4-0.7l-0.8-0.5l0.9-0.5l-0.4-0.7l-0.9,0.5v-1L190.3,16.2L190.3,16.2z"/>
	<path id="fdsfsfsdf" color-rendering="auto" image-rendering="auto" class="st1" d="M185.9,16.2v1l-0.9-0.5l-0.4,0.7l1,0.6
		l-0.8,0.5l0.4,0.7l1.2-0.7l4,2.3v1.4h0.8v-1.1l0.9,0.5l0.4-0.7l-0.9-0.5l0.8-0.5l-0.4-0.7l-1.3,0.7l-4-2.3v-1.4H185.9L185.9,16.2z"
		/>
	<path id="fdfs" class="st16" d="M2.9,30.3c0,0-0.7,0.1-0.9,0s-0.8-0.4-0.8-0.4s0.2,0.5,0.3,0.7C1.6,30.7,1.8,31,1.8,31
		S1.1,31.3,1,31.5c-0.2,0.3-0.3,1.3-0.3,1.3l0.9-0.7c0,0-0.6,0.6-0.7,0.9c-0.3,1.6,0,2.2,0.1,2.5c0.1,0.2,0.4,0.6,0.4,0.6l0.1-1.6
		L1.7,34c0,0-0.1,1.4,0,1.9c0,0.3,0.2,0.9,0.3,1.1c0.1,0.2,0.5,0.7,0.8,0.8c0.1,0.1,0.5,0.1,0.5,0.1l-0.4-0.8l0.4,0.6
		c0,0,0.4,0.9,1.9,1c0.3,0,1,0,1.3-0.2c0.1-0.1,0.3-0.3,0.3-0.3s1.1-0.4,1.4-0.7c0.3-0.3,0.8-1.1,1-1.5c0.1-0.3,0.2-2,0.2-2l0.3,1.5
		c0,0,0.4-0.5,0.5-0.7c0.1-0.3,0.1-1.1,0-1.4C10.1,33,9.7,32,9.7,32l-0.3-0.4c0,0,0.6,0.4,0.7,0.6c0.1,0.1,0.2,0.4,0.2,0.4
		s0-0.5,0-0.7c-0.1-0.4-0.5-1-0.7-1.3s-0.8-0.9-1.1-1c-0.1,0-0.3,0-0.3,0l0.1-0.1c0,0-0.3-0.3-0.4-0.4C7.7,29,7.2,28.7,7,28.7
		S2.9,30.3,2.9,30.3z"/>
	<path id="dfgdfg_00000176724470540786237310000016700694199973974916_" class="st17" d="M5.5,30.1c0.2-0.1,0.4-0.3,0.6-0.6
		s0.2-0.4,0.3-0.7s-0.1-0.5-0.3-0.6c-0.2-0.2-0.3-0.1-0.3-0.1s-0.3,0.6-0.4,0.7s-1,0.3-1.4,0.4c-0.4,0-0.9,0-1.1,0.2
		s-0.1,0.2-0.1,0.5s0,0.3,0.2,0.6s0.4,0.2,0.7,0.2C4.2,30.6,5.1,30.3,5.5,30.1z"/>
	<path id="dfgdfg" class="st16" d="M20.4,2.3c0,0,1-0.9,1.4-1c0.5-0.1,1.8,0.4,1.8,0.4L21.9,2c0,0,1.9,0.2,2.5,0.6
		c0.2,0.3,0.7,1,0.7,1s-1-0.4-1.3-0.5c-0.2-0.1-1-0.2-1-0.2s1.3,0.6,1.7,0.8c0.3,0.2,0.8,0.8,1,1C25.6,4.9,26,5.6,26,5.6l-1.5-1.3
		c0,0,1,0.9,1.1,1.4c0.1,0.2,0.1,0.6,0,0.8c-0.1,0.2-0.5,0.6-0.5,0.6l-1.3,2.4v0.6c0,0-0.2-0.8-0.2-1.1c0-0.1,0.1-0.3,0.1-0.3
		s-0.9,0.6-1.3,0.7c-0.3,0.1-1,0-1.4,0.1c-0.1,0-0.4,0.1-0.4,0.2c-0.2,0.2-0.3,0.6-0.3,0.9c0,0.2,0,1.7,0,1.7s-0.5-0.9-0.6-1.2
		s0-1.1,0-1.1s-0.7,0.8-1,1.1c-0.4,0.4-2,2-2.5,3c-0.1,0.3-0.1,1-0.2,1.3c-0.1,0.2-0.7,0.6-0.7,0.6s0.4-0.6,0.4-0.9
		c0-0.2,0-0.6,0-0.6s-1.7,1.6-2.2,2.2c-0.3,0.3-0.7,0.9-0.9,1.3s-0.3,1.4-0.6,1.8c-0.3,0.5-1.3,1.1-1.7,1.5
		c-0.7,0.4-2.4,2.8-2.4,2.8L6,25.6c0,0-1.3-5.1-1.5-6.9c-0.1-1.3-0.2-4.1,0.2-5.4c0.6-1.7,2.6-4.8,3.9-6.1c1-0.9,3.2-2.5,4.4-3.1
		c1-0.5,3.1-1.5,4.3-1.8C18.2,2.2,20.4,2.3,20.4,2.3z"/>
	<path id="dgdfgd" class="st18" d="M23.9,4.9c-0.4-0.5-1.9-0.7-2.6-0.8c-0.6,0-2.5,0.4-2.5,0.4L22,5.2c0,0-2.7,0.1-3.6,0.3
		c-0.6,0.1-2.1,0.8-2.1,0.8h3.3c0,0-4.3,1.2-5.3,2.2c-0.4,0.4-1.5,2.9-1.5,2.9l1.7-1.3c0,0-0.8,2.3-1.2,3c-0.7,1.1-3,1-3.8,1.7
		c-1.1,0.8-2.4,4.9-2.4,4.9l-1.3,1.2l0.1,2.8l7.9-7.9l4.7-6.1c0.2,0.4,5.3-0.8,5.7-3.5C24.2,5.8,24.1,5.1,23.9,4.9z"/>
	<path id="dgdfg" class="st1" d="M17.6,8.6c-0.4,0.2-0.8,0.9-1,1.3c-0.2,0.4-0.4,1.6-0.4,1.6l0.1,1c0,0,0.7-1.8,1-2.4
		C17.4,9.8,17.8,9.3,18,9c0-0.1,0-0.3,0-0.4C17.9,8.5,17.7,8.5,17.6,8.6z"/>
	<path id="gdfgd" class="st1" d="M11.4,16.5c-0.3,0.2-0.4,2.6-0.8,3.4C10.5,20.2,9.8,21,9.8,21s1.2-0.7,1.5-1.1s0.5-1.4,0.5-1.9
		c0-0.3,0-1.4,0-1.4S11.5,16.5,11.4,16.5z"/>
	<path id="fgdfg" class="st1" d="M10,14.4c-0.3,0.1-0.6,1.1-0.6,1.1s0,1,0,1.3s-0.1,1-0.2,1.4c-0.1,0.3-0.8,1-0.8,1s1-0.4,1.2-0.7
		c0.3-0.3,0.4-1.2,0.5-1.6c0.1-0.3,0.1-1,0.2-1.4c0-0.2,0.1-0.7,0.1-0.9C10.2,14.5,10.1,14.4,10,14.4z"/>
	<path id="gdfgdf" class="st19" d="M11,17.1c0.1,0.2-0.1,1.1-0.1,1.1s-0.2,0.9-0.3,1.2c-0.1,0.3-0.6,0.9-0.6,0.9s-0.6,0.9-0.6,1.2
		c-0.2,0.6,0,2.2,0,2.2S9,22.1,9,21.6c0-0.4,0.4-1.3,0.5-1.7c0.1-0.4,0.5-1.1,0.6-1.4c0.1-0.4,0.2-1.4,0.6-1.6
		C10.7,16.9,11,17,11,17.1z"/>
	<path id="fgdfdvd" class="st20" d="M22.3,6.1c-0.1,0.1-0.2,0.5-0.3,0.7c-0.2,0.3-0.8,1.1-0.8,1.1S20,9,20.1,9c0,0,1.6-0.4,2-0.7
		s0.9-1.1,1-1.6c0.1-0.2,0-0.7-0.2-0.8C22.8,5.8,22.5,6,22.3,6.1z"/>
	<path id="gfdfgd" class="st21" d="M17.8,9.5c-0.2,0.4-0.6,1.9-0.7,2.5c0,0.1,0,0.6,0,0.6s0.8-2.4,1-2.8c0.1-0.2,0.5-0.6,0.4-0.8
		c0-0.1-0.2,0-0.3,0C18.1,9.2,17.9,9.4,17.8,9.5z"/>
	<path id="dfgf" class="st22" d="M14.1,9.7c-0.2,0.1-0.4,0.7-0.4,0.7s0,0.5,0,0.7c0,0.3,0.1,0.8,0.2,1.1c0.2,0.7-0.1,1.9-0.1,1.9
		s0.6-0.7,0.7-2.1c0-0.3-0.1-1,0-1.3c0-0.2,0.3-0.6,0.2-0.8C14.6,9.7,14.2,9.6,14.1,9.7z"/>
	<path id="gg" class="st23" d="M21,1.8c-0.4-1.6-5.3-1.4-6.9-0.9c-1,0.3-5.1,1.1-8,3.6c-1.8,1-4,4.6-4.6,5.9S0.1,13.6,0,15.6
		s0.4,5.6,0.4,5.6s0.4,4.1,0.8,5.5s0.4,1.8,1.1,2.2C3,29.3,4.7,29,5.2,28.8s0.6-1.2,0.8-2.7s-0.6-6.8-0.3-8.9s1.2-6.1,2.1-7.5
		s6.6-4.5,7.8-5.1s3.3-2.4,4-2.4S21,2.1,21,1.8z"/>
	<path id="gfgfg" class="st24" d="M4,29.7c0,0-0.3-0.2-0.4,0c-0.1,0.1-0.1,0.3,0,0.3S4,29.9,4,29.7C4.1,29.8,4.1,29.7,4,29.7z"/>
	<path id="dfsfsdf" class="st25" d="M5.2,14.9C4.8,16,4.5,18,4.5,19c0.2,0.6,0.2,2.3,0.6,2.8c0.5,0.7,0.2,2.1,0.2,2.1l-1.7-0.8
		c0,0,1.4,1.1,1.7,1.6c0.4,0.7,0.3,2.8,0.5,2.9s0.3-3.7,0-5.5c-0.2-1.3-0.1-3.9,0.1-5.3c0.1-1.1,0.6-3,0.8-4.1
		C7,11,9.5,8.5,10.9,7.5c3.8-2.6,9.2-5.3,9.2-5.3S18.3,2,13.7,3.6c-1.8,0.5-4.9,2-6.4,3.2c-1,0.8-3.1,4.7-3.1,4.7s1.1-1.3,1.5-1.7
		C6,9.5,7.1,8.9,7.1,8.9"/>
</g>
</svg>
