<?xml version="1.0"?>
<svg width="116" height="24" viewBox="0 0 116 24" fill="none" xmlns="http://www.w3.org/2000/svg">
<path d="M69.7861 6.89632H74.7944V9.01152H71.9215V11.4199H74.4334V13.5344H71.9215V16.1062H74.7944V18.2207H69.7861V6.89632ZM21.1216 6.89632H26.1292V9.01152H23.2563V11.4199H25.7675V13.5344H23.2563V16.1062H26.1292V18.2207H21.1216V6.89632ZM26.7102 6.89632H29.2059L30.0067 9.69463H30.1008L30.8538 6.89632H33.3657L31.2001 12.3148L33.523 18.2207H31.0112L30.0537 14.902H29.9912L29.0331 18.2207H26.5528L28.8133 12.3148L26.7102 6.89632ZM34.2768 9.77666C34.2768 8.87637 34.5094 8.15495 34.9753 7.61238C35.4406 7.06978 36.1546 6.79883 37.1181 6.79883C38.0701 6.79883 38.7741 7.04019 39.2293 7.52295C39.6845 8.00568 39.9124 8.63231 39.9124 9.40215C39.9124 9.45663 39.9124 9.50771 39.9124 9.55678C39.9124 9.60586 39.907 9.65698 39.8969 9.71145L37.8402 10.0853C37.8301 9.74977 37.7595 9.47005 37.6304 9.24752C37.5013 9.02564 37.3279 8.91403 37.1107 8.91403C36.9648 8.91403 36.8485 8.94428 36.7611 9.00345C36.673 9.06329 36.6031 9.13656 36.5513 9.22333C36.4995 9.31006 36.4632 9.40485 36.4424 9.50771C36.4215 9.61126 36.4114 9.70069 36.4114 9.77666V15.5528C36.4114 15.7048 36.4478 15.8506 36.521 15.9918C36.5937 16.133 36.7658 16.2036 37.0367 16.2036C37.2452 16.2036 37.4146 16.1062 37.5444 15.9105C37.6748 15.7155 37.7454 15.4223 37.7555 15.0317L39.8653 15.3249C39.8545 16.2251 39.6138 16.9493 39.1425 17.4972C38.6725 18.0452 37.9915 18.3188 37.1026 18.3188C36.1183 18.3188 35.4016 18.0801 34.9511 17.6028C34.5013 17.1254 34.2768 16.41 34.2768 15.4546V9.77666ZM41.0742 6.89632H43.2089V11.3869H44.5744V6.89632H46.7098V18.2207H44.5744V13.5344H43.2089V18.2207H41.0742V6.89632ZM49.693 6.89632H52.299L54.3867 18.2207H52.141L51.8116 16.0087H50.2101L49.8806 18.2207H47.6202L49.693 6.89632ZM51.2939 12.1198L51.0579 9.82507H50.9638L50.7291 12.1198L50.5086 13.9251H51.4976L51.2939 12.1198ZM55.2809 6.89632H57.1487L58.4369 10.1834L59.1745 12.2495H59.2525V6.89632H61.3408V18.2207H59.5274L58.2446 14.9181L57.4949 12.7706H57.4163V18.2207H55.2809V6.89632ZM62.8946 9.77666C62.8946 8.87637 63.138 8.15495 63.6247 7.61238C64.1115 7.06978 64.8154 6.79883 65.7359 6.79883C66.2281 6.79883 66.6543 6.8721 67.0154 7.018C67.3771 7.16457 67.675 7.36832 67.9103 7.62851C68.1463 7.8887 68.313 8.198 68.4132 8.55634C68.512 8.91403 68.5463 9.29929 68.5147 9.71145L66.4425 10.0853C66.4325 9.74977 66.3632 9.47005 66.2355 9.24752C66.107 9.02564 65.9356 8.91403 65.7204 8.91403C65.5772 8.91403 65.4623 8.94428 65.3755 9.00345C65.2888 9.06329 65.2189 9.13656 65.1678 9.22333C65.1167 9.31006 65.0804 9.40485 65.0602 9.50771C65.0393 9.61126 65.0299 9.70069 65.0299 9.77666V15.5528C65.0299 15.7048 65.0649 15.8506 65.1368 15.9918C65.2088 16.133 65.3769 16.2036 65.6431 16.2036C65.8475 16.2036 66.0156 16.1465 66.1494 16.0329C66.2818 15.9186 66.3484 15.77 66.3484 15.5851V13.8444H65.6263V11.908H68.4838V15.4714C68.4838 16.4047 68.2424 17.112 67.761 17.5947C67.2796 18.0774 66.5999 18.3188 65.7204 18.3188C64.7361 18.3188 64.0194 18.0801 63.5696 17.6028C63.1198 17.1254 62.8946 16.41 62.8946 15.4546V9.77666Z" fill="#262B3E"/>
<path fill-rule="evenodd" clip-rule="evenodd" d="M15.0807 7.85566C15.0807 3.53932 11.7043 0.0400391 7.54035 0.0400391C3.37585 0.0400391 0 3.53932 0 7.85566C0 12.172 3.37585 15.6707 7.54035 15.6707C11.7043 15.6707 15.0807 12.172 15.0807 7.85566ZM9.53665 2.62925C10.1739 3.0263 10.8112 3.42337 11.4463 3.82501C11.542 3.8861 11.5672 3.97934 11.5061 4.07571C10.8321 5.14094 10.1316 6.21563 9.42666 7.26004C9.37881 7.33125 9.31896 7.38981 9.22384 7.37155C9.13943 7.35582 9.09407 7.30037 9.07266 7.19704C9.04403 7.0608 9.01115 6.919 8.97781 6.77522C8.90771 6.47293 8.83559 6.1619 8.79673 5.87546C8.78602 5.80175 8.74381 5.7715 8.67832 5.77594C6.17809 5.91638 3.28604 7.33565 3.087 10.2359C3.08257 10.3058 3.05297 10.3631 3.01014 10.4041C2.9547 10.4576 2.87597 10.4809 2.79658 10.4551C2.68698 10.4192 2.65801 10.3146 2.63279 10.2176C1.66648 6.47892 4.55097 3.31978 8.11641 3.12074C8.19704 3.11634 8.20775 3.07791 8.19389 3.01114C8.1626 2.8614 8.12982 2.71194 8.09705 2.56257C8.05924 2.39018 8.02145 2.2179 7.98601 2.04543C7.96775 1.95849 7.97908 1.86905 8.05594 1.81929C8.12524 1.77455 8.19829 1.79347 8.27074 1.8388C8.69224 2.10315 9.11444 2.36619 9.53665 2.62925ZM5.58376 13.1023C4.93298 12.6969 4.28231 12.2915 3.63377 11.8813C3.53803 11.8208 3.51284 11.7276 3.57393 11.6306C4.24798 10.5653 4.94846 9.49065 5.65398 8.44686C5.70186 8.37503 5.76108 8.31647 5.8562 8.33473C5.94061 8.35046 5.98532 8.40591 6.00739 8.5092C6.03621 8.64639 6.06935 8.78921 6.10294 8.934C6.17287 9.23538 6.24478 9.54531 6.28391 9.83082C6.294 9.90515 6.33558 9.93478 6.40173 9.931C8.90193 9.78987 11.7933 8.37063 11.993 5.47041C11.9974 5.40048 12.0271 5.34317 12.0699 5.30221C12.1253 5.24867 12.2035 5.22535 12.2834 5.25183C12.3931 5.2871 12.422 5.39165 12.4472 5.48867C13.4136 9.22736 10.5291 12.3865 6.96426 12.5855C6.88297 12.5899 6.87227 12.629 6.88613 12.6958C6.91697 12.843 6.94926 12.9901 6.98154 13.1372C7.01984 13.3117 7.05813 13.4862 7.094 13.6609C7.11164 13.7478 7.10093 13.8372 7.02411 13.8876C6.95543 13.9317 6.8811 13.9128 6.8093 13.8675C6.40109 13.6116 5.9924 13.357 5.58376 13.1023Z" fill="#262B3E"/>
<path d="M17.7367 20.4793L15.1912 16.3702C15.103 16.2272 14.9921 16.1069 14.868 16.0105C14.5203 15.7377 14.0636 15.6533 13.644 15.79L13.0765 14.8735L12.8906 14.5736L12.6563 14.1963L12.386 13.7597C12.5964 13.579 12.7949 13.3887 12.982 13.1884C15.3518 10.6529 15.823 6.67482 13.9029 3.57619C13.6314 3.13774 13.324 2.73772 12.9876 2.37616C12.4226 1.76826 11.7756 1.2725 11.077 0.892648C10.243 0.439715 9.33589 0.153732 8.40546 0.047281C8.12135 0.0151271 7.83599 -0.000606475 7.55001 1.78721e-05C6.17107 0.00507509 4.77703 0.403815 3.53036 1.23345C1.29598 2.72071 0.0776878 5.2304 0.0795921 7.79297C0.0802164 9.2305 0.46572 10.6844 1.27079 11.9833C2.86265 14.5547 5.67153 15.8259 8.41554 15.5122C9.1809 15.4253 9.94061 15.2149 10.6688 14.8747L10.9636 15.3509L11.9388 16.9245C11.5394 17.3838 11.4663 18.0798 11.8046 18.6247L14.7344 23.3537C14.994 23.7726 15.4318 24.0006 15.8784 24C16.1298 24 16.383 23.9282 16.6104 23.7776L16.7049 23.7134L17.7121 23.0425C18.3434 22.6236 18.526 21.7524 18.121 21.0991L17.7367 20.4793ZM2.18105 11.3779C0.323993 8.38132 1.07739 4.42343 3.83904 2.37173C3.92851 2.30561 4.0211 2.23946 4.11497 2.17709C5.43909 1.29579 6.95722 0.98271 8.40421 1.1761C8.44767 1.18178 8.4905 1.18934 8.53398 1.19564C10.1548 1.44697 11.6748 2.33583 12.7186 3.77776C12.8087 3.90185 12.8963 4.02846 12.9788 4.16076C12.9832 4.16769 12.9883 4.17462 12.9927 4.18155C13.2314 4.56706 13.4261 4.96833 13.5804 5.37843C13.9407 6.34033 14.0692 7.3558 13.9867 8.34733C13.821 10.3342 12.8024 12.2221 11.0588 13.3837C10.2316 13.933 9.32959 14.2612 8.41617 14.3834C8.34877 14.3928 8.28137 14.3998 8.21332 14.4067C6.66746 14.5623 5.10397 14.1314 3.83274 13.184C3.19524 12.7084 2.63083 12.1049 2.18105 11.3779Z" fill="#262B3E"/>
<path fill-rule="evenodd" clip-rule="evenodd" d="M109.867 1.91992H78.6665V22.0799H109.867C112.076 22.0799 113.867 20.2891 113.867 18.0799V5.91992C113.867 3.71078 112.076 1.91992 109.867 1.91992ZM84.163 10.6699C84.0805 10.561 84.0304 10.4474 84.0099 10.3283C83.9895 10.2087 83.9789 10.0729 83.9789 9.92089C83.9789 9.8019 83.9868 9.67682 84.002 9.54641C84.0172 9.41663 84.0475 9.30032 84.093 9.19746C84.1392 9.09391 84.2026 9.00718 84.2844 8.93657C84.3642 8.86667 84.4763 8.83102 84.6188 8.83102C84.7706 8.83102 84.8906 8.8633 84.9764 8.92918C85.0628 8.99375 85.1314 9.08314 85.1822 9.19746C85.233 9.31108 85.266 9.43882 85.2812 9.57933C85.2957 9.72054 85.3036 9.87181 85.3036 10.0352L87.3685 9.56321C87.3685 9.24854 87.3276 8.92314 87.2452 8.58696C87.1627 8.2508 87.0215 7.9442 86.821 7.66785C86.6211 7.39153 86.3466 7.16293 85.9963 6.98407C85.648 6.80525 85.2067 6.71582 84.6723 6.71582C84.1696 6.71582 83.7408 6.79719 83.3865 6.95988C83.0322 7.12258 82.7446 7.34379 82.5236 7.6255C82.3026 7.90721 82.1409 8.2454 82.038 8.64077C81.9351 9.0361 81.8843 9.46638 81.8843 9.93165C81.8843 10.3001 81.91 10.639 81.9615 10.9469C82.0123 11.2555 82.1231 11.548 82.2927 11.8243C82.4622 12.1007 82.7063 12.3602 83.0243 12.6036C83.343 12.847 83.7632 13.083 84.2877 13.3109C84.4816 13.3969 84.6465 13.481 84.7798 13.5623C84.9137 13.6437 85.0199 13.7385 85.0965 13.8467C85.1737 13.955 85.2264 14.0847 85.2581 14.236C85.2878 14.388 85.3036 14.5776 85.3036 14.8048C85.3036 14.9669 85.2957 15.1303 85.2812 15.2923C85.266 15.455 85.235 15.5955 85.1895 15.7145C85.144 15.8335 85.0773 15.931 84.9922 16.007C84.9052 16.083 84.7864 16.1199 84.6334 16.1199C84.3701 16.1199 84.1893 16.0178 84.093 15.8113C83.9961 15.6049 83.938 15.2963 83.9176 14.8835L81.8071 15.3071C81.8071 15.7085 81.8586 16.0863 81.9615 16.4413C82.0644 16.7957 82.2261 17.1076 82.4471 17.3745C82.6667 17.6428 82.955 17.8526 83.3093 18.0059C83.6636 18.1592 84.0871 18.2358 84.5792 18.2358C85.1248 18.2358 85.5761 18.1545 85.9356 17.9918C86.2945 17.829 86.5802 17.5991 86.79 17.2999C87.0004 17.0014 87.1502 16.641 87.2373 16.2181C87.3257 15.7952 87.3685 15.3232 87.3685 14.8028C87.3685 14.3685 87.3454 13.9806 87.2993 13.639C87.2524 13.2974 87.1561 12.9908 87.0077 12.7199C86.8592 12.4489 86.6422 12.1995 86.3559 11.9709C86.0702 11.7436 85.6816 11.5265 85.1902 11.3207C84.9045 11.201 84.6815 11.0901 84.5232 10.9872C84.3655 10.8837 84.2448 10.7782 84.163 10.6699ZM109.117 17.5366C109.58 17.07 109.811 16.3485 109.811 15.3723V9.56321C109.811 8.58696 109.588 7.86823 109.141 7.40699C108.695 6.94576 108.003 6.71582 107.07 6.71582C106.217 6.71582 105.549 6.94576 105.067 7.40699C104.583 7.86823 104.343 8.58696 104.343 9.56321V15.3723C104.343 17.2818 105.251 18.2358 107.07 18.2358C107.973 18.2358 108.656 18.0025 109.117 17.5366ZM106.622 8.94534C106.745 8.83642 106.895 8.78194 107.07 8.78194C107.243 8.78194 107.39 8.83642 107.508 8.94534C107.626 9.05356 107.685 9.23175 107.685 9.48187V15.4698C107.685 15.73 107.626 15.9115 107.508 16.0151C107.39 16.1179 107.243 16.1697 107.07 16.1697C106.895 16.1697 106.745 16.1179 106.622 16.0151C106.5 15.9115 106.438 15.73 106.438 15.4698V9.48187C106.438 9.23175 106.5 9.05356 106.622 8.94534ZM100.862 18.1377H102.957V6.81331H101.001L99.9526 9.79114L99.2137 12.0852H99.1214L98.397 9.83955L97.3349 6.81331H95.3775V18.1377H97.4728V12.8013H97.5493L98.0408 14.4767L98.4848 15.9257H99.8801L100.294 14.6072L100.8 12.8496H100.862V18.1377ZM93.3133 17.5366C93.7764 17.07 94.0073 16.3485 94.0073 15.3723V6.8301H91.881V15.4214C91.881 15.6816 91.8223 15.8631 91.7042 15.966C91.5868 16.0689 91.4396 16.1199 91.2655 16.1199C91.0906 16.1199 90.9416 16.0689 90.8189 15.966C90.6955 15.8631 90.6335 15.6816 90.6335 15.4214V6.8301H88.5389V15.3723C88.5389 17.2818 89.4466 18.2358 91.2655 18.2358C92.1693 18.2358 92.8521 18.0025 93.3133 17.5366Z" fill="#325CF0"/>
</svg>
