<svg xmlns="http://www.w3.org/2000/svg" viewBox="0 0 20.83 40"><defs><style>.cls-1{fill:#2e364d;}</style></defs><title>01</title><g id="Слой_2" data-name="Слой 2"><g id="Capa_1" data-name="Capa 1"><path class="cls-1" d="M20.53,24.35a8.07,8.07,0,0,0-.7-1.71,5.78,5.78,0,0,0-1.18-1.42,14.12,14.12,0,0,0-1.38-1.12,13.49,13.49,0,0,0-1.69-.95q-1.07-.52-1.7-.78l-1.81-.7-1.56-.61q-.51-.21-1.35-.6a7.87,7.87,0,0,1-1.25-.69A9.82,9.82,0,0,1,7,15a2.51,2.51,0,0,1-.66-.93,3,3,0,0,1,1.15-3.55A5.8,5.8,0,0,1,11,9.6a7.44,7.44,0,0,1,1.91.26,10,10,0,0,1,1.66.58,11.55,11.55,0,0,1,1.31.71q.61.39.87.59l.32.27a.71.71,0,0,0,.6.16.61.61,0,0,0,.51-.36L20,8.55a.65.65,0,0,0-.11-.85l-.34-.31q-.2-.18-.87-.65a10.77,10.77,0,0,0-1.42-.84,14.33,14.33,0,0,0-1.94-.75,12.38,12.38,0,0,0-2.47-.51V.71A.69.69,0,0,0,12.12,0h-3a.69.69,0,0,0-.5.21.69.69,0,0,0-.21.5v4a10.21,10.21,0,0,0-5.69,3,7.63,7.63,0,0,0-2.19,5.4A7.75,7.75,0,0,0,.7,14.87a8.91,8.91,0,0,0,.47,1.48A5.46,5.46,0,0,0,2,17.65a13.87,13.87,0,0,0,1,1.09,7.88,7.88,0,0,0,1.19.95q.74.49,1.26.79t1.4.69q.87.39,1.37.59l1.37.56q1.21.47,1.79.73t1.47.71a6.12,6.12,0,0,1,1.31.84,4.2,4.2,0,0,1,.75.94,2.26,2.26,0,0,1,.34,1.18,3.12,3.12,0,0,1-1.37,2.72,5.41,5.41,0,0,1-3.18,1A7.8,7.8,0,0,1,9,30.22a11.66,11.66,0,0,1-5.42-2.79l0,0a.55.55,0,0,0-.54-.2.69.69,0,0,0-.51.27l-2.3,3a.68.68,0,0,0,0,.92q.11.13.39.4a12.92,12.92,0,0,0,1,.84,15,15,0,0,0,1.65,1.07,15,15,0,0,0,2.27,1,14.09,14.09,0,0,0,2.85.69v3.91a.72.72,0,0,0,.71.71h3a.69.69,0,0,0,.71-.71V35.38a9.58,9.58,0,0,0,5.77-3,8.49,8.49,0,0,0,2.22-5.88A7.34,7.34,0,0,0,20.53,24.35Z"/></g></g></svg>