<svg xmlns="http://www.w3.org/2000/svg" viewBox="0 0 27.34 40"><defs><style>.cls-1{fill:#1ba2ee;}</style></defs><title>04</title><g id="Слой_2" data-name="Слой 2"><g id="Capa_1" data-name="Capa 1"><path class="cls-1" d="M21.94,13.87l5.22-7a.92.92,0,0,0-.74-1.47H3.94V4.22a2.21,2.21,0,1,0-1.84,0V38.16H.92A.92.92,0,1,0,.92,40H5.1a.92.92,0,1,0,0-1.84H3.94V22.32H26.39a.92.92,0,0,0,.74-1.47ZM3,2.76a.55.55,0,1,1,.55-.55A.55.55,0,0,1,3,2.76Zm.92,17.71h0V17.41H6.88a.92.92,0,1,0,0-1.84H3.94V12.15h4.6a.92.92,0,1,0,0-1.84H3.94V7.24H24.58L20,13.32a.92.92,0,0,0,0,1.1l4.5,6H3.94Z"/></g></g></svg>