<svg width="50" height="50" viewBox="0 0 50 50" fill="none" xmlns="http://www.w3.org/2000/svg">
<circle cx="25" cy="25" r="20" fill="#325CF0"/>
<path d="M25.404 25.4819C28.9754 25.4819 31.8949 22.5624 31.8949 18.9909C31.8949 15.4195 28.9754 12.5 25.404 12.5C21.8325 12.5 18.9131 15.4195 18.9131 18.9909C18.9131 22.5624 21.8326 25.4819 25.404 25.4819Z" fill="white"/>
<path d="M36.5431 30.669C36.373 30.2438 36.1463 29.847 35.8912 29.4785C34.5873 27.5511 32.5749 26.2756 30.3073 25.9638C30.0239 25.9355 29.7121 25.9921 29.4853 26.1622C28.2948 27.0409 26.8776 27.4944 25.4037 27.4944C23.9297 27.4944 22.5125 27.0409 21.322 26.1622C21.0952 25.9921 20.7834 25.9071 20.5 25.9638C18.2324 26.2756 16.1916 27.5511 14.9161 29.4785C14.661 29.847 14.4343 30.2722 14.2642 30.669C14.1792 30.8391 14.2075 31.0375 14.2925 31.2076C14.5193 31.6044 14.8027 32.0013 15.0578 32.3414C15.4547 32.88 15.8798 33.3618 16.3617 33.8153C16.7585 34.2121 17.212 34.5806 17.6656 34.9491C19.9048 36.6215 22.5976 37.5001 25.3753 37.5001C28.1531 37.5001 30.8459 36.6214 33.0851 34.9491C33.5386 34.609 33.9921 34.2121 34.389 33.8153C34.8425 33.3618 35.296 32.8799 35.6928 32.3414C35.9763 31.9729 36.2314 31.6044 36.4581 31.2076C36.5998 31.0375 36.6281 30.8391 36.5431 30.669Z" fill="white"/>
</svg>
