<svg width="50" height="50" viewBox="0 0 50 50" fill="none" xmlns="http://www.w3.org/2000/svg">
<circle cx="25" cy="25" r="20" fill="#325CF0"/>
<path d="M25 11.667C22.3489 11.6705 19.8074 12.7252 17.9328 14.5998C16.0582 16.4744 15.0035 19.0159 15 21.667C15 28.8462 24.3167 37.8378 24.7125 38.217C24.7895 38.2918 24.8926 38.3337 25 38.3337C25.1074 38.3337 25.2105 38.2918 25.2875 38.217C25.6833 37.8378 35 28.8462 35 21.667C34.9965 19.0159 33.9418 16.4744 32.0672 14.5998C30.1926 12.7252 27.6511 11.6705 25 11.667V11.667ZM25 26.2503C24.0935 26.2503 23.2074 25.9815 22.4536 25.4779C21.6999 24.9743 21.1125 24.2585 20.7656 23.421C20.4187 22.5835 20.3279 21.6619 20.5047 20.7728C20.6816 19.8837 21.1181 19.0671 21.7591 18.4261C22.4001 17.7851 23.2168 17.3486 24.1058 17.1717C24.9949 16.9949 25.9165 17.0856 26.754 17.4325C27.5915 17.7794 28.3073 18.3669 28.8109 19.1206C29.3145 19.8744 29.5833 20.7605 29.5833 21.667C29.5826 22.8823 29.0995 24.0477 28.2401 24.9071C27.3807 25.7665 26.2154 26.2496 25 26.2503Z" fill="white"/>
</svg>
