<svg xmlns="http://www.w3.org/2000/svg" viewBox="0 0 40 40"><defs><style>.cls-1{fill:#1ba2ee;}</style></defs><title>02</title><g id="Слой_2" data-name="Слой 2"><g id="Capa_1" data-name="Capa 1"><path class="cls-1" d="M34.14,5.86A20,20,0,0,0,5.86,34.14,20,20,0,1,0,34.14,5.86ZM20,37.66A17.66,17.66,0,1,1,37.66,20,17.68,17.68,0,0,1,20,37.66Z"/><path class="cls-1" d="M29.56,13.58a1.17,1.17,0,0,0-1.66,0L17.55,23.93,12.1,18.48a1.17,1.17,0,1,0-1.66,1.66l6.28,6.28a1.17,1.17,0,0,0,1.66,0L29.56,15.24A1.17,1.17,0,0,0,29.56,13.58Z"/></g></g></svg>