<?xml version="1.0"?>
<svg width="20" height="20" viewBox="0 0 20 20" fill="none" xmlns="http://www.w3.org/2000/svg">
<circle cx="10" cy="10.0004" r="9.6" fill="#325CF0"/>
<path d="M10.194 10.2313C11.9083 10.2313 13.3096 8.82994 13.3096 7.11565C13.3096 5.40135 11.9083 4 10.194 4C8.4797 4 7.07837 5.40135 7.07837 7.11565C7.07837 8.82994 8.47972 10.2313 10.194 10.2313Z" fill="white"/>
<path d="M15.5408 12.721C15.4591 12.5169 15.3503 12.3265 15.2279 12.1496C14.602 11.2244 13.636 10.6122 12.5476 10.4625C12.4115 10.4489 12.2619 10.4761 12.153 10.5577C11.5816 10.9795 10.9013 11.1972 10.1938 11.1972C9.48634 11.1972 8.80608 10.9795 8.23465 10.5577C8.12579 10.4761 7.97613 10.4353 7.84009 10.4625C6.75165 10.6122 5.77207 11.2244 5.15983 12.1496C5.03738 12.3265 4.92852 12.5305 4.84691 12.721C4.8061 12.8027 4.81969 12.8979 4.8605 12.9795C4.96936 13.17 5.1054 13.3605 5.22785 13.5238C5.41831 13.7823 5.6224 14.0135 5.85371 14.2312C6.04417 14.4217 6.26186 14.5986 6.47957 14.7754C7.55438 15.5782 8.84691 15.9999 10.1802 15.9999C11.5136 15.9999 12.8061 15.5782 13.8809 14.7754C14.0986 14.6122 14.3163 14.4217 14.5068 14.2312C14.7245 14.0135 14.9422 13.7822 15.1326 13.5238C15.2687 13.3469 15.3912 13.17 15.5 12.9795C15.568 12.8979 15.5816 12.8026 15.5408 12.721Z" fill="white"/>
</svg>
