<?xml version="1.0"?>
<svg xmlns="http://www.w3.org/2000/svg" viewBox="0 0 1000 1000">
<path fill="#fff" d="M408.7,27.3c53.6,127.2,10.1,232.7-34,296.6c-57.6,83.6-143.8,164.5-149.9,162c-6.3-2.7-22.1-98.9-14.3-160.9c8.8-70,0.5-48.2-9.5-27.9C180.1,339.9,63.6,507,51.9,663.3C35,889.8,316.4,990,316.4,990s-69.4-60-38.6-182.3c30.9-122.3,75.7-131.4,103.6-163.1c22.6-25.8,31-63.9,28.2-112.9c0,0,43.5,41.3,29.1,142.7c0,0,118.3-156.8,87.1-256.8c-5.5-17.6,188.4,170.9,176.3,360.3c-9.4,147-44.1,164.2-63.9,212.1c0,0,263.6-85.6,303.9-310.1c27.8-154.8-32.5-330.6-137.5-429c-87.4-81.9-83.4-85.6-58-9.5c33.1,99.4,5.9,149.4-1.9,160.4c-4,5.6-19.4-76.7-110.9-205.6C550.9,79.3,473.5,32.3,432.1,17.6C393.4,3.8,401.4,9.8,408.7,27.3L408.7,27.3z"/>
</svg>