<svg fill-rule="evenodd" viewBox="0 0 20 20" xmlns="http://www.w3.org/2000/svg">
<path d="M2 3.5C2 3.22 2.22 3 2.5 3C2.77 3 3 3.22 3 3.5V6.34C4.64 4.30 7.17 3 10.00 3C14.97 3 19.00 7.02 19.00 12C19.00 12.20 18.99 12.40 18.9 12.60C18.95 12.92 18.63 13.12 18.33 13.01C18.10 12.9 17.97 12.71 17.98 12.48C17.99 12.32 18.00 12.16 18.00 12C18.00 7.58 14.41 4 10.00 4C7.47 4 5.22 5.17 3.75 7H6.5C6.77 7 7 7.22 7 7.5C7 7.77 6.77 8 6.5 8H2.5C2.22 8 2 7.77 2 7.5V3.5Z" fill="#537DD6"/>
<path d="M14.00 11.94C14.00 11.94 14.00 11.94 14.00 11.95C14.00 11.94 14.00 11.94 14.00 11.94ZM13.9 11.94C13.94 11.96 13.95 11.98 13.97 12C13.95 12.01 13.94 12.03 13.9 12.05C13.78 12.17 13.54 12.33 13.16 12.48C12.40 12.78 11.28 13 10 13C8.71 13 7.59 12.78 6.83 12.48C6.45 12.33 6.21 12.17 6.08 12.05C6.05 12.03 6.04 12.01 6.02 12C6.04 11.98 6.05 11.96 6.08 11.94C6.21 11.82 6.45 11.66 6.83 11.51C7.59 11.21 8.71 11 10 11C11.28 11 12.40 11.21 13.16 11.51C13.54 11.66 13.78 11.82 13.9 11.94ZM5.99 11.94L5.99 11.94C5.99 11.94 5.99 11.94 5.99 11.95C5.99 11.94 5.99 11.94 5.99 11.94ZM10 10C12.76 10 15 10.89 15 12V15C15 16.10 12.76 17 10 17C7.23 17 5 16.10 5 15V12C5 10.89 7.23 10 10 10ZM6 15H6.02C6.04 15.01 6.05 15.03 6.08 15.05C6.21 15.17 6.45 15.33 6.83 15.48C7.59 15.78 8.71 16 10 16C11.28 16 12.40 15.78 13.16 15.48C13.54 15.33 13.78 15.17 13.9 15.05C13.94 15.03 13.95 15.01 13.97 15L14 15V13.20C13.08 13.68 11.63 14 10 14C8.36 14 6.91 13.68 6 13.20V15ZM5.99 15.05C5.99 15.05 5.99 15.05 5.99 15.04L5.99 15.05L5.99 15.05ZM14.00 15.04C14.00 15.05 14.00 15.05 14.00 15.05C14.00 15.05 14.00 15.05 14.00 15.04Z" fill="#FDA800"/>
</svg>