<svg height="20" viewBox="0 -21 512 512" width="22" xmlns="http://www.w3.org/2000/svg"><path d="m306 317c-12 12-28 18-45 18-17 0-33-6-45-18l-90-90c-12-12-18-28-18-45 0-17 6-33 18-45 12-12 28-18 45-18 17 0 33 6 45 18l45 45 125-125c-40-34-93-56-152-56-129 0-234 105-234 234 0 129 105 234 234 234 129 0 234-105 234-234 0-24-3-47-10-69zm0 0" fill="#4caf50"/><path d="m261 293c-5 0-10-2-15-6l-90-90c-8-8-8-21 0-30 8-8 21-8 30 0l75 75 214-214c8-8 21-8 30 0 8 8 8 21 0 30l-229 229c-4 4-9 6-15 6zm0 0" fill="#2196f3"/></svg>