<svg width="26" height="16" viewBox="0 0 26 16" fill="none" xmlns="http://www.w3.org/2000/svg">
<g clip-path="url(#clip0)">
<path fill-rule="evenodd" clip-rule="evenodd" d="M0 7.65273C2.85176 12.3936 7.70665 15.3046 13 15.3046C18.2933 15.3046 23.1482 12.3936 26 7.65273C23.1482 2.91099 18.2987 0 13 0C7.70135 0 2.85088 2.91099 0 7.65273ZM13 3.73841C13.8274 3.73972 14.633 4.0034 15.301 4.49151C15.969 4.97963 16.4651 5.66703 16.7177 6.45486C16.9704 7.24269 16.9667 8.09035 16.7072 8.87595C16.4476 9.66155 15.9456 10.3446 15.2734 10.8269C14.6011 11.3091 13.7932 11.5658 12.9659 11.5599C12.1386 11.554 11.3344 11.2858 10.6691 10.794C10.0038 10.3022 9.51157 9.61209 9.26326 8.82288C9.01496 8.03366 9.02335 7.18602 9.28723 6.40188C9.41367 6.66989 9.6027 6.90358 9.83838 7.08323C10.0741 7.26289 10.3495 7.38324 10.6414 7.43415C10.9333 7.48506 11.2332 7.46504 11.5158 7.37576C11.7984 7.28649 12.0554 7.13058 12.2651 6.92118C12.4748 6.71179 12.631 6.45504 12.7207 6.17259C12.8104 5.89015 12.8309 5.59028 12.7804 5.29827C12.7299 5.00626 12.6099 4.73067 12.4306 4.49473C12.2513 4.2588 12.0179 4.06943 11.75 3.94261C12.1528 3.80689 12.575 3.73792 13 3.73841ZM13 1.69196C14.179 1.69179 15.3315 2.04123 16.3119 2.6961C17.2922 3.35097 18.0564 4.28186 18.5077 5.37103C18.9589 6.4602 19.0771 7.65874 18.8472 8.81507C18.6173 9.97141 18.0497 11.0336 17.2161 11.8673C16.3825 12.701 15.3204 13.2688 14.1641 13.4989C13.0078 13.729 11.8092 13.611 10.72 13.1598C9.63076 12.7087 8.69977 11.9447 8.04475 10.9644C7.38973 9.98418 7.04012 8.83169 7.04012 7.65273C7.04012 6.07199 7.66801 4.55598 8.78567 3.43814C9.90334 2.32031 11.4193 1.6922 13 1.69196Z" fill="black"/>
</g>
<defs>
<clipPath id="clip0">
<rect width="26" height="15.3046" fill="white"/>
</clipPath>
</defs>
</svg>
