<svg width="26" height="26" viewBox="0 0 26 26" fill="none" xmlns="http://www.w3.org/2000/svg">
<path d="M22.1406 3.04688H21.3789V2.28516C21.3789 1.02512 20.3538 0 19.0938 0H3.85938C2.59934 0 1.57422 1.02512 1.57422 2.28516V20.668C1.57422 21.928 2.59934 22.9531 3.85938 22.9531H4.62109V23.7148C4.62109 24.9749 5.64621 26 6.90625 26H22.1406C23.4007 26 24.4258 24.9749 24.4258 23.7148V5.33203C24.4258 4.072 23.4007 3.04688 22.1406 3.04688ZM5.29039 5.87067C4.85875 6.30226 4.62109 6.87609 4.62109 7.48648V21.4297H3.85938C3.43936 21.4297 3.09766 21.088 3.09766 20.668V2.28516C3.09766 1.86514 3.43936 1.52344 3.85938 1.52344H19.0938C19.5138 1.52344 19.8555 1.86514 19.8555 2.28516V3.04688H9.0607C8.4503 3.04688 7.87648 3.28458 7.44489 3.71617L5.29039 5.87067ZM9.19141 4.57031V7.61719H6.14453V7.48648C6.14453 7.28305 6.22375 7.09175 6.36761 6.94789L8.52211 4.79339C8.66597 4.64953 8.85727 4.57031 9.0607 4.57031H9.19141ZM22.9023 23.7148C22.9023 24.1349 22.5606 24.4766 22.1406 24.4766H6.90625C6.48624 24.4766 6.14453 24.1349 6.14453 23.7148V9.14062H9.95312C10.3738 9.14062 10.7148 8.79958 10.7148 8.37891V4.57031H22.1406C22.5606 4.57031 22.9023 4.91202 22.9023 5.33203V23.7148Z" fill="#3F61E0"/>
<path d="M20.6172 10.7656H8.42969C8.00902 10.7656 7.66797 11.1067 7.66797 11.5273C7.66797 11.948 8.00902 12.2891 8.42969 12.2891H20.6172C21.0379 12.2891 21.3789 11.948 21.3789 11.5273C21.3789 11.1067 21.0379 10.7656 20.6172 10.7656Z" fill="#3F61E0"/>
<path d="M20.6172 13.8125H8.42969C8.00902 13.8125 7.66797 14.1535 7.66797 14.5742C7.66797 14.9949 8.00902 15.3359 8.42969 15.3359H20.6172C21.0379 15.3359 21.3789 14.9949 21.3789 14.5742C21.3789 14.1535 21.0379 13.8125 20.6172 13.8125Z" fill="#3F61E0"/>
<path d="M20.6172 16.8594H8.42969C8.00902 16.8594 7.66797 17.2004 7.66797 17.6211C7.66797 18.0418 8.00902 18.3828 8.42969 18.3828H20.6172C21.0379 18.3828 21.3789 18.0418 21.3789 17.6211C21.3789 17.2004 21.0379 16.8594 20.6172 16.8594Z" fill="#3F61E0"/>
<path d="M20.6172 19.9062H8.42969C8.00902 19.9062 7.66797 20.2473 7.66797 20.668C7.66797 21.0886 8.00902 21.4297 8.42969 21.4297H20.6172C21.0379 21.4297 21.3789 21.0886 21.3789 20.668C21.3789 20.2473 21.0379 19.9062 20.6172 19.9062Z" fill="#3F61E0"/>
</svg>
