<svg viewBox="0 0 20 20" xmlns="http://www.w3.org/2000/svg" fill-rule="evenodd" fill="#406DCB">
<path d="M10 17.1111C13.9274 17.1111 17.1111 13.9274 17.1111 10C17.1111 6.07264 13.9274 2.88889 10 2.88889C6.07264 2.88889 2.88889 6.07264 2.88889 10C2.88889 13.9274 6.07264 17.1111 10 17.1111ZM10 18C14.4183 18 18 14.4183 18 10C18 5.58172 14.4183 2 10 2C5.58172 2 2 5.58172 2 10C2 14.4183 5.58172 18 10 18Z"/>
<path d="M13 7H7C6.44772 7 6 7.44772 6 8H14C14 7.44772 13.5523 7 13 7ZM5 8V9V12C5 13.1046 5.89543 14 7 14H13C14.1046 14 15 13.1046 15 12V9V8C15 6.89543 14.1046 6 13 6H7C5.89543 6 5 6.89543 5 8ZM14 12V9H6V12C6 12.5523 6.44772 13 7 13H13C13.5523 13 14 12.5523 14 12ZM8 12C8.55229 12 9 11.5523 9 11C9 10.4477 8.55229 10 8 10C7.44772 10 7 10.4477 7 11C7 11.5523 7.44772 12 8 12Z"/>
</svg>
