<svg viewBox="0 0 20 20" xmlns="http://www.w3.org/2000/svg">
<circle cx="10" cy="10" r="8.5" fill="none" stroke="#537DD6" stroke-width="1"/>
<path fill-rule="evenodd" d="M12.57 5.74C12.28 5.57 11.91 5.67 11.75 5.96L7.35 13.58C7.18 13.86 7.28 14.23 7.57 14.40C7.85 14.56 8.22 14.46 8.39 14.18L12.79 6.56C12.95 6.27 12.85 5.90 12.57 5.74ZM7.76 8.81C7.89 8.64 8 8.35 8 8C8 7.64 7.89 7.35 7.76 7.18C7.63 7.01 7.52 7 7.5 7C7.47 7 7.36 7.01 7.23 7.18C7.10 7.35 7 7.64 7 8C7 8.35 7.10 8.64 7.23 8.81C7.36 8.98 7.47 9 7.5 9C7.52 9 7.63 8.98 7.76 8.81ZM7.5 10C8.32 10 9 9.10 9 8C9 6.89 8.32 6 7.5 6C6.67 6 6 6.89 6 8C6 9.10 6.67 10 7.5 10ZM12.76 12.81C12.89 12.64 13 12.35 13 12C13 11.64 12.89 11.35 12.76 11.18C12.63 11.01 12.52 11 12.5 11C12.47 11 12.36 11.01 12.23 11.18C12.10 11.35 12 11.64 12 12C12 12.35 12.10 12.64 12.23 12.81C12.36 12.98 12.47 13 12.5 13C12.52 13 12.63 12.98 12.76 12.81ZM12.5 14C13.32 14 14 13.10 14 12C14 10.89 13.32 10 12.5 10C11.67 10 11 10.89 11 12C11 13.10 11.67 14 12.5 14Z" fill="#537DD6"/>
</svg>