<svg viewBox="0 0 20 20" fill="#406DCB" xmlns="http://www.w3.org/2000/svg">
<circle cx="10" cy="10" r="7.5" fill="none" stroke="#406DCB" stroke-width="1"/>
<path d="M11.4433 8.04084C11.6386 7.84558 11.9552 7.84558 12.1504 8.04084L14.2581 10.1485C14.265 10.1547 14.2718 10.1611 14.2785 10.1678C14.4737 10.363 14.4737 10.6796 14.2785 10.8749L12.1569 12.9965C11.9616 13.1918 11.645 13.1918 11.4497 12.9965C11.2545 12.8012 11.2545 12.4847 11.4497 12.2894L12.7393 10.9999H6V11C5.44772 11 5 10.5523 5 10V9.99988V8.5C5 8.22386 5.22386 8 5.5 8C5.77614 8 6 8.22386 6 8.5V9.99988H12.6953L11.4433 8.74795C11.2481 8.55269 11.2481 8.2361 11.4433 8.04084Z"/>
</svg>
