<svg viewBox="0 0 20 20" xmlns="http://www.w3.org/2000/svg">
<circle cx="10" cy="10" r="8.5" fill="none" stroke="#537DD6" stroke-width="1"/>
<path d="M8.14 6.74C8.34 6.55 8.34 6.23 8.14 6.04C7.95 5.84 7.63 5.84 7.43 6.04L5.31 8.16C5.12 8.35 5.12 8.67 5.31 8.86C5.44 8.99 5.63 9.04 5.79 8.99H13.49C13.77 8.99 13.99 8.77 13.99 8.49C13.99 8.22 13.77 7.99 13.49 7.99L6.89 7.99L8.14 6.74ZM6.50 10.99C6.22 10.99 6.00 11.22 6.00 11.49C6.00 11.77 6.22 11.99 6.50 11.99H13.14L11.85 13.28C11.65 13.48 11.65 13.80 11.85 13.99C12.04 14.19 12.36 14.19 12.56 13.99L14.68 11.87C14.87 11.67 14.87 11.36 14.68 11.16C14.58 11.07 14.45 11.02 14.32 11.02L14.33 10.99H6.50Z" fill="#537DD6"/>
</svg>