<svg fill-rule="evenodd" viewBox="0 0 20 20" xmlns="http://www.w3.org/2000/svg">
<path d="M2 1.5C2 1.22 2.22 1 2.5 1C2.77 1 3 1.22 3 1.5V4.34C4.64 2.30 7.17 1 10.00 1C14.97 1 19.00 5.02 19.00 10C19.00 10.20 18.99 10.40 18.9 10.60C18.95 10.92 18.63 11.12 18.33 11.01C18.10 10.9 17.97 10.71 17.98 10.48C17.99 10.32 18.00 10.16 18.00 10C18.00 5.58 14.41 2 10.00 2C7.47 2 5.22 3.17 3.75 5H6.5C6.77 5 7 5.22 7 5.5C7 5.77 6.77 6 6.5 6H2.5C2.22 6 2 5.77 2 5.5V1.5Z" fill="#42B72A"/>
<text x="0" style="font-stretch:narrower;" font-size="10" y="15" fill="#537DD6">35%</text>
</svg>