<svg fill-rule="evenodd" viewBox="0 0 20 20" xmlns="http://www.w3.org/2000/svg">
<path d="M14.97 10C14.95 9.98 14.94 9.96 14.9 9.94C14.78 9.82 14.54 9.66 14.16 9.51C13.40 9.21 12.28 9 11 9C9.71 9 8.59 9.21 7.83 9.51C7.45 9.66 7.21 9.82 7.08 9.94C7.05 9.96 7.04 9.98 7.02 10C7.04 10.01 7.05 10.03 7.08 10.05C7.21 10.17 7.45 10.33 7.83 10.48C8.59 10.78 9.71 11 11 11C12.28 11 13.40 10.78 14.16 10.48C14.54 10.33 14.78 10.17 14.9 10.05C14.94 10.03 14.95 10.01 14.97 10ZM6.99 9.95C6.99 9.94 6.99 9.94 6.99 9.94C6.99 9.94 6.99 9.94 6.99 9.95ZM16 10C16 8.89 13.76 8 11 8C8.23 8 6 8.89 6 10V10.02C5.83 10.00 5.66 10 5.5 10C3.01 10 1 12.01 1 14.5C1 16.98 3.01 19 5.5 19C6.70 19 7.79 18.52 8.60 17.75C9.31 17.91 10.13 18 11 18C13.76 18 16 17.10 16 16V13V10ZM9.32 16.87C9.83 16.95 10.39 17 11 17C12.28 17 13.40 16.78 14.16 16.48C14.54 16.33 14.78 16.17 14.9 16.05C14.94 16.03 14.95 16.01 14.97 16L15 16V14.20C14.08 14.68 12.63 15 11 15C10.64 15 10.30 14.98 9.97 14.95C9.90 15.65 9.67 16.30 9.32 16.87ZM9.96 13.95C10.29 13.98 10.64 14 11 14C12.28 14 13.40 13.78 14.16 13.48C14.54 13.33 14.78 13.17 14.9 13.05C14.94 13.03 14.95 13.01 14.97 13L15 13V11.20C14.08 11.68 12.63 12 11 12C10.34 12 9.71 11.94 9.14 11.85C9.58 12.46 9.87 13.17 9.96 13.95ZM15.00 16.05C15.00 16.05 15.00 16.05 15.00 16.05V16.05ZM9 14.5C9 16.43 7.43 18 5.5 18C3.56 18 2 16.43 2 14.5C2 12.56 3.56 11 5.5 11C7.43 11 9 12.56 9 14.5Z" fill="#FDA800"/>
<path d="M2 1.5C2 1.22 2.22 1 2.5 1C2.77 1 3 1.22 3 1.5V4.34C4.64 2.30 7.17 1 10.00 1C14.97 1 19.00 5.02 19.00 10C19.00 10.20 18.99 10.40 18.9 10.60C18.95 10.92 18.63 11.12 18.33 11.01C18.10 10.9 17.97 10.71 17.98 10.48C17.99 10.32 18.00 10.16 18.00 10C18.00 5.58 14.41 2 10.00 2C7.47 2 5.22 3.17 3.75 5H6.5C6.77 5 7 5.22 7 5.5C7 5.77 6.77 6 6.5 6H2.5C2.22 6 2 5.77 2 5.5V1.5Z" fill="#42B72A"/>
</svg>