<svg viewBox="0 0 20 20" xmlns="http://www.w3.org/2000/svg">
<circle cx="10" cy="10" r="8.5" fill="none" stroke="#537DD6" stroke-width="1"/>
<path d="M11.44 8.04C11.63 7.84 11.95 7.84 12.15 8.04L14.25 10.14C14.26 10.15 14.27 10.16 14.27 10.16C14.47 10.36 14.47 10.67 14.27 10.87L12.15 12.99C11.96 13.19 11.64 13.19 11.44 12.99C11.25 12.80 11.25 12.48 11.44 12.28L12.73 10.99H6V11C5.44 11 5 10.55 5 10V9.99V8.5C5 8.22 5.22 8 5.5 8C5.77 8 6 8.22 6 8.5V9.99H12.69L11.44 8.74C11.24 8.55 11.24 8.23 11.44 8.04Z" fill="#537DD6"/>
</svg>