<svg viewBox="0 0 20 20" xmlns="http://www.w3.org/2000/svg" fill-rule="evenodd" fill="#537DD6">
<circle cx="10" cy="10" r="8.5" fill="none" stroke="#537DD6" stroke-width="1"/>
<path d="M10.5 6H9.5C9.22 6 9 6.22 9 6.5C9 6.77 9.22 7 9.5 7H10H10.5C10.77 7 11 6.77 11 6.5C11 6.22 10.77 6 10.5 6ZM11 7.91C11.58 7.70 12 7.15 12 6.5C12 5.67 11.32 5 10.5 5H9.5C8.67 5 8 5.67 8 6.5C8 7.15 8.41 7.70 9 7.91V8V10H8C6.89 10 6 10.89 6 12V13H7C7 13.55 7.44 14 8 14H12C12.55 14 13 13.55 13 13H14V12C14 10.89 13.10 10 12 10H11V8V7.91ZM11 11H10H9H8C7.44 11 7 11.44 7 12H13C13 11.44 12.55 11 12 11H11Z"/>
</svg>