<svg viewBox="0 0 20 20" xmlns="http://www.w3.org/2000/svg">
<circle cx="10" cy="10" r="8.5" fill="none" stroke="#537DD6" stroke-width="1"/>
<path fill-rule="evenodd" d="M11 7.5C11 8.54 10.35 9 10 9C9.64 9 9 8.54 9 7.5C9 6.45 9.64 6 10 6C10.35 6 11 6.45 11 7.5ZM12 7.5C12 8.88 11.10 10 10 10C8.89 10 8 8.88 8 7.5C8 6.11 8.89 5 10 5C11.10 5 12 6.11 12 7.5ZM11.87 11.77C12.47 11.69 13 12.16 13 12.76V13.34C12.29 13.62 11.12 14 10 14C8.87 14 7.70 13.62 7 13.34V12.76C7 12.16 7.52 11.69 8.12 11.77L9.75 11.97C9.91 11.99 10.08 11.99 10.24 11.97L11.87 11.77ZM6 12.76C6 11.56 7.05 10.63 8.24 10.78L9.87 10.98C9.95 10.99 10.04 10.99 10.12 10.98L11.75 10.78C12.94 10.63 14 11.56 14 12.76V13.38C14 13.76 13.78 14.10 13.43 14.24C12.70 14.54 11.35 15 10 15C8.64 15 7.29 14.54 6.56 14.24C6.21 14.10 6 13.76 6 13.38V12.76Z" fill="#537DD6"/>
</svg>