<?xml version="1.0"?>
<svg xmlns="http://www.w3.org/2000/svg" width="197px" height="45px" viewBox="0 0 3365704 768842" fill="#2A609F">
<path d="M241543 1191c133384,0 241543,112094 241543,250361 0,138267 -108159,250341 -241543,250341 -133403,0 -241543,-112074 -241543,-250341 0,-138267 108140,-250361 241543,-250361z"/>
<path d="M617378 652005l1685536 0 0 -568565 -1833852 0c7688,9041 14811,18807 21309,29260 59912,96678 45181,220779 -28755,299881 -5832,6255 -12027,12208 -18585,17858l8435 13601 7285 11764 5811 9363 15296 24720c5690,-666 11421,0 16769,1917 8556,363 16889,3390 23831,8838 3874,3027 7325,6780 10110,11240l79404 128197 7406 11926z"/>
<g fill="white">
<path d="M2046983 197775l150314 0 0 63483 -86225 0 0 72282 75389 0 0 63463 -75389 0 0 77185 86225 0 0 63463 -150314 0 0 -339876zm-1460560 0l150294 0 0 63483 -86225 0 0 72282 75369 0 0 63463 -75369 0 0 77185 86225 0 0 63463 -150294 0 0 -339876zm167729 0l74904 0 24034 83985 2825 0 22600 -83985 75389 0 -64997 162623 69719 177253 -75389 0 -28735 -99604 -1877 0 -28755 99604 -74440 0 67842 -177253 -63120 -162623zm227095 86447c0,-27020 6982,-48672 20966,-64956 13964,-16285 35394,-24417 64310,-24417 28574,0 49701,7244 63363,21733 13661,14488 20501,33295 20501,56400 0,1635 0,3168 0,4641 0,1473 -161,3007 -464,4642l-61727 11219c-303,-10069 -2422,-18464 -6296,-25143 -3875,-6659 -9081,-10009 -15599,-10009 -4378,0 -7869,908 -10493,2684 -2643,1796 -4742,3995 -6296,6599 -1553,2603 -2643,5448 -3269,8535 -625,3108 -928,5792 -928,8072l0 173358c0,4561 1090,8939 3289,13177 2180,4238 7346,6356 15478,6356 6255,0 11340,-2925 15235,-8798 3915,-5852 6033,-14650 6336,-26374l63322 8798c-323,27020 -7547,48753 -21693,65199 -14105,16446 -34546,24659 -61223,24659 -29542,0 -51053,-7164 -64573,-21491 -13500,-14327 -20239,-35798 -20239,-64472l0 -170412zm204010 -86447l64068 0 0 134776 40984 0 0 -134776 64089 0 0 339876 -64089 0 0 -140648 -40984 0 0 140648 -64068 0 0 -339876zm258675 0l78214 0 62656 339876 -67398 0 -9888 -66389 -48066 0 -9888 66389 -67842 0 62212 -339876zm48046 156771l-7082 -68871 -2825 0 -7043 68871 -6619 54181 29684 0 -6115 -54181zm119662 -156771l56058 0 38663 98655 22136 62010 2341 0 0 -160665 62676 0 0 339876 -54423 0 -38502 -99120 -22499 -64452 -2361 0 0 163572 -64089 0 0 -339876zm228508 86447c0,-27020 7305,-48672 21914,-64956 14610,-16285 35737,-24417 63362,-24417 14772,0 27565,2199 38401,6578 10857,4399 19796,10514 26859,18323 7082,7809 12087,17092 15093,27847 2967,10735 3996,22298 3047,34668l-62191 11219c-303,-10069 -2381,-18464 -6215,-25143 -3855,-6659 -9000,-10009 -15458,-10009 -4298,0 -7748,908 -10351,2684 -2604,1796 -4702,3995 -6236,6599 -1533,2603 -2623,5448 -3228,8535 -626,3108 -909,5792 -909,8072l0 173358c0,4561 1050,8939 3209,13177 2159,4238 7204,6356 15195,6356 6134,0 11179,-1715 15195,-5125 3975,-3430 5973,-7890 5973,-13439l0 -52244 -21673 0 0 -58115 85761 0 0 106948c0,28009 -7244,49237 -21692,63726 -14448,14488 -34849,21733 -61244,21733 -29542,0 -51053,-7164 -64552,-21491 -13500,-14327 -20260,-35798 -20260,-64472l0 -170412z"/>
<path d="M366674 122507c-33821,-21390 -67842,-42376 -101723,-63625 -2321,-1452 -4661,-2058 -6881,-625 -2462,1594 -2825,4459 -2240,7244 2119,10312 4500,20603 6659,30935 444,2139 101,3370 -2482,3511 -114213,6376 -206613,107574 -175659,227337 808,3108 1736,6457 5247,7608 2543,827 5065,80 6841,-1635 1372,-1312 2320,-3148 2462,-5388 6376,-92904 99018,-138368 179109,-142867 2098,-142 3450,827 3793,3188 1837,13540 5994,28795 8839,42335 686,3310 2139,5086 4843,5590 3047,585 4964,-1291 6497,-3572 22581,-33456 45020,-67882 66612,-102005 1957,-3087 1150,-6074 -1917,-8031zm-250261 258070c33820,21390 67822,42376 101723,63624 2300,1453 4681,2059 6881,646 2461,-1614 2804,-4480 2239,-7264 -2118,-10312 -4499,-20603 -6659,-30915 -444,-2139 -101,-3390 2503,-3531 114193,-6377 206593,-107574 175638,-227337 -807,-3108 -1735,-6457 -5247,-7587 -2562,-848 -5064,-101 -6840,1614 -1372,1312 -2321,3148 -2462,5388 -6397,92904 -99019,138367 -179109,142888 -2119,121 -3451,-828 -3774,-3209 -1856,-13540 -6013,-28795 -8858,-42336 -707,-3309 -2139,-5085 -4843,-5589 -3047,-585 -4944,1291 -6478,3592 -22600,33436 -45039,67862 -66631,101985 -1957,3107 -1150,6094 1917,8031z"/>
<path d="M568161 656041l-81543 -131628c-2825,-4580 -6377,-8435 -10352,-11522 -11139,-8738 -25769,-11442 -39208,-7063l-18181 -29360 -5953 -9605 -7507 -12088 -8657 -13984c6740,-5791 13097,-11885 19090,-18302 75913,-81221 91007,-208652 29502,-307912 -8698,-14045 -18545,-26859 -29321,-38441 -18100,-19473 -38824,-35354 -61203,-47522 -26717,-14509 -55774,-23670 -85579,-27080 -9101,-1030 -18242,-1534 -27403,-1514 -44172,162 -88828,12935 -128763,39511 -71575,47642 -110601,128036 -110540,210124 20,46049 12369,92622 38158,134231 50993,82371 140971,123092 228871,113043 24517,-2784 48853,-9524 72180,-20421l9444 15255 31237 50408c-12793,14710 -15134,37008 -4298,54463l93853 151484c8314,13419 22338,20724 36645,20704 8052,0 16164,-2301 23448,-7123l3027 -2059 32266 -21490c20220,-13419 26072,-41327 13097,-62253l-12310 -19856zm-498301 -291547c-59488,-95992 -35354,-222777 53111,-288500 2866,-2118 5832,-4237 8839,-6235 42416,-28231 91047,-38260 137399,-32065 1392,182 2764,424 4157,626 51920,8051 100612,36524 134049,82714 2886,3975 5691,8031 8334,12269 141,222 303,444 444,666 7648,12349 13883,25203 18827,38340 11542,30813 15659,63342 13015,95104 -5307,63645 -37936,124121 -93792,161331 -26495,17596 -55391,28110 -84651,32024 -2159,303 -4318,525 -6498,747 -49519,4984 -99603,-8818 -140325,-39167 -20421,-15236 -38501,-34567 -52909,-57854z"/>
<path d="M3265233 83440l-966294 0 0 568565 966294 0c55492,0 100471,-46633 100471,-104164l0 -360257c0,-57530 -44979,-104144 -100471,-104144z"/>
</g>
<path d="M2457284 303271c625,3572 2159,6982 4681,10251 2502,3249 6195,6417 11018,9524 4843,3088 11664,6417 20401,10009 15033,6175 26919,12693 35656,19513 8758,6861 15397,14348 19937,22480 4541,8132 7487,17334 8919,27585 1413,10251 2119,21894 2119,34930 0,15618 -1311,29784 -4015,42476 -2664,12693 -7245,23509 -13682,32469 -6417,8979 -15154,15880 -26132,20764 -10997,4883 -24800,7325 -41488,7325 -15053,0 -28008,-2301 -38844,-6901 -10837,-4601 -19655,-10897 -26374,-18949 -6760,-8011 -11704,-17374 -14852,-28008 -3148,-10655 -4722,-21995 -4722,-34042l64553 -12713c625,12390 2401,21652 5367,27847 2946,6195 8475,9262 16527,9262 4681,0 8314,-1110 10977,-3390 2603,-2280 4642,-5206 6034,-8778 1392,-3571 2341,-7789 2805,-12672 444,-4863 686,-9767 686,-14630 0,-6820 -484,-12511 -1393,-17071 -968,-4541 -2582,-8435 -4943,-11684 -2341,-3249 -5590,-6094 -9686,-8536 -4077,-2441 -9121,-4964 -15054,-7547 -16042,-6840 -28896,-13923 -38643,-21228 -9726,-7305 -17192,-15094 -22378,-23388 -5186,-8293 -8576,-17071 -10130,-26333 -1574,-9242 -2361,-19413 -2361,-30471 0,-13964 1554,-26878 4702,-38743 3147,-11866 8091,-22016 14851,-30471 6760,-8455 15558,-15094 26395,-19977 10836,-4883 23952,-7325 39328,-7325 16346,0 29845,2684 40500,8051 10715,5368 19109,12229 25224,20522 6134,8294 10452,17496 12975,27585 2522,10090 3773,19856 3773,29300l-63160 14166c0,-4904 -242,-9444 -686,-13682 -464,-4217 -1473,-8051 -3027,-11461 -1554,-3431 -3653,-6114 -6296,-8052 -2623,-1977 -6296,-2946 -10937,-2946 -4359,0 -7789,1070 -10231,3168 -2502,2119 -4439,4722 -5852,7830 -1392,3087 -2320,6578 -2784,10473 -465,3914 -707,7668 -707,11239 0,4561 323,8637 949,12229zm789182 151383c0,29300 -7062,50952 -21208,64957 -14125,13984 -35011,20986 -62636,20986 -55613,0 -83400,-28634 -83400,-85943l0 -174347c0,-29300 7345,-50871 22137,-64714 14751,-13843 35172,-20744 61263,-20744 28554,0 49701,6901 63362,20744 13662,13843 20482,35414 20482,64714l0 174347zm-83844 -197795c-5347,0 -9928,1635 -13701,4904 -3733,3248 -5630,8596 -5630,16103l0 179714c0,7809 1897,13258 5630,16365 3773,3088 8354,4642 13701,4642 5307,0 9787,-1554 13399,-4642 3612,-3107 5428,-8556 5428,-16365l0 -179714c0,-7507 -1816,-12855 -5428,-16103 -3612,-3269 -8092,-4904 -13399,-4904zm-125796 280792l-64089 0 0 -158709 -1876 0 -15478 52748 -12672 39572 -42679 0 -13580 -43486 -15034 -50286 -2340 0 0 160161 -64089 0 0 -339876 59871 0 32488 90826 22157 67398 2825 0 22601 -68851 32064 -89373 59831 0 0 339876zm-273749 -82997c0,29300 -7063,50952 -21228,64957 -14105,13984 -34991,20986 -62636,20986 -55634,0 -83400,-28634 -83400,-85943l0 -256375 64068 0 0 257848c0,7810 1897,13258 5671,16345 3753,3088 8313,4621 13661,4621 5327,0 9827,-1533 13419,-4621 3612,-3087 5408,-8535 5408,-16345l0 -257848 65037 0 0 256375z"/>
</svg>
