<svg width="48" height="48" viewBox="0 0 48 48" fill="none" xmlns="http://www.w3.org/2000/svg">
<circle cx="24" cy="24" r="24" fill="#325CF0"/>
<path fill-rule="evenodd" clip-rule="evenodd" d="M30.9585 22.6001C30.9409 22.5798 30.9178 22.5556 30.888 22.5273C30.7052 22.3545 30.3656 22.1343 29.8298 21.92C28.7661 21.4945 27.2005 21.2 25.4 21.2C23.5995 21.2 22.034 21.4945 20.9702 21.92C20.4345 22.1343 20.0948 22.3545 19.9121 22.5273C19.8822 22.5556 19.8592 22.5798 19.8415 22.6C19.8592 22.6203 19.8822 22.6445 19.9121 22.6728C20.0948 22.8456 20.4345 23.0658 20.9702 23.2801C22.034 23.7056 23.5995 24 25.4 24C27.2005 24 28.7661 23.7056 29.8298 23.2801C30.3656 23.0658 30.7052 22.8456 30.888 22.6728C30.9178 22.6445 30.9409 22.6203 30.9585 22.6001ZM19.7907 22.531C19.7897 22.5279 19.7888 22.5258 19.7882 22.5247C19.788 22.5247 19.7881 22.5261 19.7907 22.531ZM32.4 22.6C32.4 21.0537 29.266 19.8 25.4 19.8C21.534 19.8 18.4 21.0537 18.4 22.6V22.6385C18.1702 22.6131 17.9366 22.6 17.7 22.6C14.2206 22.6 11.4 25.4207 11.4 28.9C11.4 32.3794 14.2206 35.2 17.7 35.2C19.3862 35.2 20.9176 34.5376 22.0483 33.4588C23.0437 33.6764 24.1858 33.8 25.4 33.8C29.266 33.8 32.4 32.5464 32.4 31V26.8V22.6ZM23.0533 32.2232C23.7658 32.3355 24.5572 32.4 25.4 32.4C27.2005 32.4 28.7661 32.1056 29.8298 31.6801C30.3656 31.4658 30.7052 31.2456 30.888 31.0728C30.9178 31.0445 30.9409 31.0203 30.9585 31.0001L31 31V28.4803C29.7229 29.1603 27.6899 29.6 25.4 29.6C24.9092 29.6 24.4301 29.5798 23.9678 29.5414C23.869 30.5186 23.5469 31.4298 23.0533 32.2232ZM23.954 28.1349C24.4139 28.1771 24.8978 28.2 25.4 28.2C27.2005 28.2 28.7661 27.9056 29.8298 27.4801C30.3656 27.2658 30.7052 27.0456 30.888 26.8728C30.9178 26.8445 30.9409 26.8203 30.9585 26.8001L31 26.8V24.2803C29.7229 24.9603 27.6899 25.4 25.4 25.4C24.4812 25.4 23.6038 25.3292 22.7999 25.2005C23.4134 26.0447 23.8223 27.0471 23.954 28.1349ZM31.0122 31.0753C31.0125 31.0761 31.0123 31.0753 31.0122 31.0753ZM22.6 28.9C22.6 31.6062 20.4062 33.8 17.7 33.8C14.9938 33.8 12.8 31.6062 12.8 28.9C12.8 26.1939 14.9938 24 17.7 24C20.4062 24 22.6 26.1939 22.6 28.9Z" fill="white"/>
<path fill-rule="evenodd" clip-rule="evenodd" d="M12.8 12.1C12.8 11.7134 13.1134 11.4 13.5 11.4C13.8866 11.4 14.2 11.7134 14.2 12.1V16.08C16.51 13.2253 20.042 11.4 24.0002 11.4C30.959 11.4 36.6003 17.0412 36.6003 24C36.6003 24.2856 36.5908 24.5689 36.5721 24.8497C36.5422 25.2986 36.0863 25.5762 35.6622 25.426C35.3519 25.316 35.1604 25.0071 35.18 24.6785C35.1935 24.454 35.2003 24.2278 35.2003 24C35.2003 17.8144 30.1858 12.8 24.0002 12.8C20.4633 12.8 17.3093 14.4395 15.2567 17H19.1C19.4866 17 19.8 17.3134 19.8 17.7C19.8 18.0866 19.4866 18.4 19.1 18.4H13.5C13.1134 18.4 12.8 18.0866 12.8 17.7V12.1Z" fill="white"/>
</svg>
