<svg width="33" height="29" viewBox="0 0 33 29" fill="none" xmlns="http://www.w3.org/2000/svg">
<g clip-path="url(#clip0_930_34182)">
<path d="M31.4574 7.89955C31.0876 6.72148 30.0042 5.79288 28.6302 5.47565C26.1199 4.88672 16.0787 4.88672 16.0787 4.88672C16.0787 4.88672 6.03766 4.88672 3.52735 5.4532C2.17981 5.77022 1.06991 6.72169 0.700107 7.89955C0.0395508 10.0513 0.0395508 14.5139 0.0395508 14.5139C0.0395508 14.5139 0.0395508 18.999 0.700107 21.1283C1.07016 22.3062 2.15338 23.235 3.5276 23.5522C6.06409 24.1412 16.0789 24.1412 16.0789 24.1412C16.0789 24.1412 26.1199 24.1412 28.6302 23.5747C30.0044 23.2577 31.0876 22.3288 31.4577 21.151C32.1182 18.999 32.1182 14.5366 32.1182 14.5366C32.1182 14.5366 32.1447 10.0513 31.4574 7.89955Z" fill="#325CF0"/>
<path d="M12.8818 18.6361L21.2317 14.5134L12.8818 10.3906V18.6361Z" fill="white"/>
</g>
<defs>
<clipPath id="clip0_930_34182">
<rect width="32.0788" height="27.5" fill="white" transform="translate(0.0395508 0.75)"/>
</clipPath>
</defs>
</svg>
